<svg width="24" height="25" viewBox="0 0 24 25" fill="none" xmlns="http://www.w3.org/2000/svg">
<path d="M7.33333 19.0016H16.6667C17.0203 19.0016 17.3594 18.8541 17.6095 18.5915C17.8595 18.329 18 17.9729 18 17.6016V9.90138C18 9.71572 17.9298 9.53767 17.8047 9.40639C17.6797 9.27511 17.5101 9.20136 17.3333 9.20136H15.3333V8.65745C15.3333 6.83111 14.0647 5.19587 12.3333 5.01876C11.8699 4.9704 11.402 5.02444 10.9597 5.17739C10.5173 5.33034 10.1104 5.57883 9.76501 5.90686C9.41964 6.23489 9.14349 6.6352 8.95433 7.08204C8.76516 7.52888 8.66717 8.01235 8.66667 8.50134V9.20136H6.66667C6.48986 9.20136 6.32029 9.27511 6.19526 9.40639C6.07024 9.53767 6 9.71572 6 9.90138V17.6016C6 17.9729 6.14048 18.329 6.39052 18.5915C6.64057 18.8541 6.97971 19.0016 7.33333 19.0016ZM15.3333 10.6014V12.0014H14V10.6014H15.3333ZM10 8.50134C10 7.34352 10.8973 6.4013 12 6.4013C13.1027 6.4013 14 7.34352 14 8.50134V9.20136H10V8.50134ZM8.66667 10.6014H10V12.0014H8.66667V10.6014Z" fill="#0349C3"/>
</svg>
