<?xml version="1.0" encoding="utf-8"?>
<!-- Generator: Adobe Illustrator 27.2.0, SVG Export Plug-In . SVG Version: 6.00 Build 0)  -->
<svg version="1.1" id="Layer_1" xmlns="http://www.w3.org/2000/svg" xmlns:xlink="http://www.w3.org/1999/xlink" x="0px" y="0px"
	 width="322px" height="50px" viewBox="0 0 322 50" style="enable-background:new 0 0 322 50;" xml:space="preserve">
<style type="text/css">
	.st0{fill:#006072;}
	.st1{fill:#F18A00;}
</style>
<g>
	<g>
		<g>
			<path class="st0" d="M30.2,18.8L20,33.8l10.3,16.1H21c-1.1,0-2-0.2-2.6-0.5s-1.1-0.9-1.6-1.7l-5.5-9.6v8.6c0,2.5-3.9,3.1-9.3,3.1
				c-0.6,0-2.2,0-2.2,0V21.8c0-2.5,3.9-3.1,9.3-3.1c0.6,0,2.2,0,2.2,0v11.5l5.3-8.4c1.4-2.2,3.1-3.1,7.6-3.1
				C24.8,18.8,30.2,18.8,30.2,18.8"/>
			<path class="st0" d="M85.6,25.8c1.7,0,2.9-0.3,3.6-1c0.7-0.7,1-1.9,1-3.5c0-0.4,0-2.3,0-2.9c-0.8,0.1-2.3,0.2-3.6,0.3
				c-1.2,0.1-2.4,0.1-3.6,0.1H72c-1,0-1.8,0.1-2.5,0.2c-0.7,0.2-1.2,0.4-1.6,0.7c-0.4,0.3-0.7,0.8-0.8,1.3c-0.2,0.6-0.3,1.3-0.3,2
				v26.8c0,0,1.7,0,2.2,0c5.4,0,9.3-0.7,9.3-3.1v-8.9h6.8c1.7,0,2.8-0.3,3.5-0.9c0.7-0.6,1.1-1.7,1.1-3.4c0-0.4,0-2.7,0-2.7
				c-0.8,0.1-2.3,0.2-3.6,0.3c-1.2,0.1-2.4,0.1-3.6,0.1h-4.2v-5.6L85.6,25.8L85.6,25.8z"/>
			<path class="st0" d="M112.2,25.8c1.7,0,2.9-0.3,3.6-1c0.7-0.7,1-1.9,1-3.5c0-0.4,0-2.3,0-2.9c-0.8,0.1-2.3,0.2-3.6,0.3
				c-1.2,0.1-2.4,0.1-3.6,0.1h-11c-1,0-1.8,0.1-2.5,0.2c-0.7,0.2-1.2,0.4-1.6,0.7c-0.4,0.3-0.7,0.8-0.8,1.3
				c-0.2,0.5-0.3,1.2-0.3,1.9v26.8c0,0,1.7,0,2.2,0c5.4,0,9.3-0.7,9.3-3.1v-8.9h6.8c1.7,0,2.8-0.3,3.5-0.9c0.7-0.6,1.1-1.7,1.1-3.4
				c0-0.4,0-2.7,0-2.7c-0.8,0.1-2.3,0.2-3.6,0.3c-1.2,0.1-2.4,0.1-3.6,0.1h-4.3v-5.6h7.4V25.8z"/>
			<path class="st0" d="M59.9,18.8c-5.4,0-9.3,0.7-9.3,3.1v8.2h-6V18.8c0,0-1.7,0-2.2,0c-5.3,0-9.3,0.7-9.3,3.1v27.9
				c0,0,1.7,0,2.2,0c5.4,0,9.3-0.7,9.3-3.1v-9.6h6v12.7c0,0,1.7,0,2.2,0c5.4,0,9.3-0.7,9.3-3.1V18.8C62.1,18.8,60.4,18.8,59.9,18.8z
				"/>
		</g>
		<path class="st1" d="M116.7,0.1c-9.6,4.9-20.3,6.3-29.2,6.4c-9.9,0.1-20-2-27.1-3.3C52.2,1.7,43.1,0,33.5,0.1
			C19.2,0.3,7.6,5,0,13.1l0.1,0.2C9.7,8.4,20.4,7,29.3,6.9c9.9-0.1,20,2,27.1,3.3c8.1,1.4,17.2,3.2,26.7,3.1
			c14.4-0.2,25.9-5,33.5-13.1L116.7,0.1z"/>
	</g>
	<g>
		<g>
			<polygon class="st0" points="141.2,20.6 137.2,20.6 137.2,18.8 134,18.8 134,20.6 130,20.6 130,23 141.2,23 			"/>
			<path class="st0" d="M131.9,30.4c0.9,0.7,2.2,1.1,3.7,1.1s2.8-0.4,3.7-1.1c0.4-0.3,0.8-0.7,1-1.2c0.2-0.5,0.4-1,0.4-1.6
				s-0.1-1.1-0.4-1.6c-0.2-0.5-0.6-0.9-1-1.2c-0.9-0.7-2.2-1.1-3.7-1.1s-2.8,0.4-3.7,1.1c-0.4,0.3-0.8,0.7-1,1.2s-0.4,1-0.4,1.6
				s0.1,1.1,0.4,1.6C131.1,29.6,131.4,30.1,131.9,30.4z M134.1,26.5c0.3-0.3,0.9-0.5,1.5-0.5c0.7,0,1.2,0.2,1.6,0.5
				c0.3,0.3,0.5,0.6,0.5,1.1s-0.3,0.9-0.5,1.1c-0.4,0.3-0.9,0.5-1.6,0.5c-0.6,0-1.2-0.2-1.5-0.5c-0.2-0.2-0.5-0.5-0.5-1.1
				C133.6,27.2,133.7,26.8,134.1,26.5z"/>
		</g>
		<path class="st0" d="M203.2,31.5c-1.2-0.9-3.4-1.4-6.2-1.4c-2.9,0-5,0.5-6.2,1.4c-0.4,0.3-0.8,0.7-1,1.1c-0.2,0.4-0.4,1-0.4,1.5
			c0,0.7,0.2,1.8,1.4,2.6c1.2,0.9,3.4,1.4,6.2,1.4s5-0.5,6.2-1.4c1.1-0.8,1.4-1.9,1.4-2.6c0-0.5-0.1-1.1-0.4-1.5
			C204,32.2,203.7,31.8,203.2,31.5z M200.9,35.1c-0.6,0.4-1.8,0.6-3.9,0.6c-2.1,0-3.3-0.2-3.9-0.6c-0.5-0.3-0.5-0.7-0.5-0.9
			s0.1-0.6,0.5-0.9c0.7-0.4,1.9-0.6,3.9-0.6s3.2,0.2,3.9,0.6c0.5,0.3,0.6,0.7,0.6,0.9C201.4,34.6,201.1,34.9,200.9,35.1z"/>
		<g>
			<rect x="226.8" y="27" class="st0" width="17.5" height="2.5"/>
			<path class="st0" d="M241.8,31.8c-1.3-0.7-3.4-1.1-6.2-1.1s-4.9,0.4-6.2,1.1c-0.6,0.3-1,0.7-1.3,1.1c-0.3,0.5-0.5,1-0.5,1.6
				c0,0.6,0.2,1.1,0.5,1.6c0.3,0.4,0.7,0.8,1.3,1.1c1.3,0.7,3.3,1.1,6.2,1.1c2.8,0,4.9-0.4,6.2-1.1c0.6-0.3,1-0.7,1.3-1.1
				c0.3-0.5,0.5-1,0.5-1.6c0-0.6-0.2-1.1-0.5-1.6C242.8,32.4,242.4,32.1,241.8,31.8z M239.8,35.3c-0.7,0.4-2,0.6-4.2,0.6
				c-2.2,0-3.5-0.2-4.2-0.6c-0.5-0.3-0.6-0.6-0.6-0.8c0-0.4,0.3-0.7,0.6-0.8c0.7-0.4,2-0.6,4.2-0.6c2.2,0,3.5,0.2,4.2,0.6
				c0.3,0.1,0.6,0.4,0.6,0.8C240.3,34.7,240.3,35,239.8,35.3z"/>
		</g>
		<path class="st0" d="M282,24h-2.9l0,0c0.2-0.4,0.2-0.8,0.2-1.1V22h2.3v-2.4h-15.2V22h2.3v2H266v2.4h15.8V24H282z M276.2,23
			c0,0.3-0.1,0.7-0.2,1h-4l0,0v-2h4.2V23z"/>
		<g>
			<polygon class="st0" points="295.6,20.4 291.9,20.4 291.9,18.8 288.7,18.8 288.7,20.4 284.7,20.4 284.7,22.7 295.6,22.7 			"/>
			<path class="st0" d="M286.5,28.9c0.9,0.6,2.2,1,3.8,1c1.5,0,2.9-0.3,3.8-1c1.1-0.7,1.3-1.7,1.3-2.4c0-1-0.5-1.8-1.3-2.4
				c-0.9-0.6-2.2-1-3.8-1c-1.5,0-2.9,0.3-3.8,1c-0.8,0.6-1.3,1.4-1.3,2.4C285.2,27.2,285.4,28.1,286.5,28.9z M288.7,25.8
				c0.3-0.2,0.9-0.4,1.6-0.4c0.7,0,1.3,0.1,1.6,0.4c0.4,0.3,0.4,0.5,0.4,0.7c0,0.1,0,0.3-0.1,0.4c-0.1,0.1-0.2,0.2-0.3,0.3
				c-0.4,0.2-0.9,0.4-1.6,0.4c-0.7,0-1.2-0.1-1.6-0.4c-0.1-0.1-0.2-0.2-0.3-0.3c-0.1-0.2-0.1-0.3-0.1-0.4
				C288.3,26.3,288.3,26,288.7,25.8z"/>
		</g>
		<path class="st0" d="M146.2,24.3v-5H143v13.4h1.9c0.9,0,1.3-0.6,1.3-1.3v-4.6h2.7v-2.6L146.2,24.3L146.2,24.3z"/>
		<path class="st0" d="M177.3,19.5h-7.9V22h6.4l0,0c0,0.9-0.2,1.6-0.4,2.3c-0.3,0.7-0.7,1.3-1.3,1.8c-1.1,1-2.9,1.7-5.1,2l0.6,1.7
			c0.1,0.4,0.5,0.7,1,0.6c2.6-0.4,4.6-1.3,6-2.6c0.8-0.8,1.5-1.7,1.9-2.8c0.4-1.1,0.6-2.4,0.6-3.8v-0.1
			C179,20.1,178.5,19.5,177.3,19.5z"/>
		<path class="st0" d="M184,32.2c0.9,0,1.3-0.6,1.3-1.3V19.3h-3.2v4.3h-2.9v2.5h2.9v6.1C182.1,32.2,184,32.2,184,32.2z"/>
		<path class="st0" d="M204.1,23.2v-3.9h-3.2v10.5h1.9c0.9,0,1.3-0.6,1.3-1.3v-2.7h2.7v-2.6H204.1z"/>
		<path class="st0" d="M262.5,28.6v-9.3h-3.2V30h1.9C262.1,30,262.5,29.4,262.5,28.6z"/>
		<path class="st0" d="M301.2,36v-5.4h-3.1V32h-8.4v-1.4h-3.1V36c0,1.3,0.6,2,2,2h10.6C300.5,37.9,301.2,37.3,301.2,36z M298,35.6
			h-8.4v-1.2h8.4V35.6z"/>
		<path class="st0" d="M173.7,35.3v-4h-3.2v4.6c0,1.3,0.6,2,2,2h13v-2.5L173.7,35.3L173.7,35.3z"/>
		<path class="st0" d="M149.6,26.7v2.5h7.2v2.4h-6.1v2.5h12v4h1.9c0.9,0,1.3-0.6,1.3-1.3v-3.1c0-1.3-0.6-2-2-2h-4v-2.4h7.2v-2.5
			L149.6,26.7L149.6,26.7z"/>
		<path class="st0" d="M162.5,25.8h2.1c0.9,0,1.2-0.6,1.3-1.3l0,0c0.1-0.5,0.1-1.1,0.1-1.6v-1.3c0-1.3-0.6-2-2-2h-13.3v2.5h12v1
			C162.7,24.2,162.6,25.1,162.5,25.8z"/>
		<path class="st0" d="M261.2,38c0.9,0,1.3-0.6,1.3-1.3v-3.8c0-1.3-0.6-2-2-2h-12.8v2.5h11.7V38H261.2z"/>
		<path class="st0" d="M265.3,27.4v2.5h7.2v1.4h-5.1c-0.6,0-0.8,0.3-0.8,0.8V36c0,1.3,0.6,2,2,2h11.1c1.4,0,2-0.6,2-2v-3.9
			c0-0.6-0.2-0.8-0.8-0.8h-5.2v-1.4h7.2v-2.5H265.3z M278.5,33.7v1.9h-8.8v-1.9H278.5z"/>
		<path class="st0" d="M299.8,29.9c0.9,0,1.3-0.6,1.3-1.3v-9.3h-3.2v3.6h-2.4v2.4h2.4v1h-2.4v2.4h2.4V30L299.8,29.9L299.8,29.9z"/>
		<g>
			<path class="st0" d="M319.1,37.7c0.9,0,1.3-0.6,1.3-1.3v-17h-3.2v14.1c-0.6,0.5-1.7,0.8-3.3,0.8h-2.3v-1.8l0,0
				c0.7-0.2,1.4-0.5,1.9-0.9s0.9-0.8,1.1-1.4c0.3-0.5,0.4-1.2,0.4-1.8c0-1.3-0.6-2.4-1.6-3.2c-0.9-0.7-2.1-1.1-3.5-1.1
				c-1.4,0-2.6,0.4-3.5,1.1c-0.5,0.4-0.9,0.8-1.2,1.4c-0.3,0.7-0.4,1.4-0.4,1.8c0,0.7,0.1,1.3,0.4,1.8c0.3,0.5,0.7,1,1.2,1.4
				c0.6,0.4,1.2,0.7,1.9,0.9l0,0v1.8H304v2.5h9.3c1.8,0,3.1-0.3,3.8-0.9v1.9L319.1,37.7L319.1,37.7z M311.5,29.6
				c-0.3,0.3-0.8,0.5-1.4,0.5c-0.6,0-1.1-0.2-1.4-0.5c-0.2-0.2-0.3-0.4-0.4-0.6c-0.1-0.2-0.1-0.5-0.1-0.8c0-0.3,0-0.5,0.1-0.8
				c0.1-0.2,0.2-0.4,0.4-0.6c0.3-0.3,0.8-0.5,1.4-0.5c0.5,0,1.1,0.2,1.4,0.5c0.3,0.2,0.6,0.7,0.6,1.3S311.8,29.4,311.5,29.6z"/>
			<polygon class="st0" points="315.6,20.9 311.7,20.9 311.7,18.8 308.5,18.8 308.5,20.9 304.6,20.9 304.6,23.4 315.6,23.4 			"/>
		</g>
		<path class="st0" d="M196.5,19.5h-7.9V22h6.4l0,0c0,1.6-0.6,2.8-1.7,3.6c-1.1,0.9-2.8,1.4-5.2,1.6l0.6,1.7c0.1,0.4,0.5,0.7,1,0.6
			c2.6-0.4,4.6-1.1,6-2.2c1.7-1.4,2.6-3.4,2.6-6.3C198.2,20.1,197.7,19.5,196.5,19.5z"/>
		<path class="st0" d="M223.9,36.4v-17h-3.2v18.4h1.9C223.5,37.7,223.9,37.1,223.9,36.4z"/>
		<path class="st0" d="M216.2,19.7h-8v2.5h6.5v1.6c0,0.7,0,1.4-0.1,2s-0.2,1.2-0.3,1.8c-0.3,1.1-0.7,2.1-1.2,3
			c-1.1,1.7-2.7,2.9-5,3.5c0,0,0.4,0.8,0.7,1.5c0.3,0.6,0.9,0.8,1.4,0.6c2.3-0.8,4.1-2.1,5.3-3.9c0.8-1.1,1.4-2.4,1.7-3.9
			c0.2-0.7,0.3-1.5,0.4-2.3c0.1-0.8,0.1-1.7,0.1-2.6v-2.1C217.8,20.2,217.3,19.7,216.2,19.7z"/>
		<path class="st0" d="M134.8,35.3v-3.2h-3.2v3.7c0,1.3,0.6,2,2,2h12.8v-2.5H134.8z"/>
		<path class="st0" d="M257,28.6L257,28.6l1.1-1.5l-4.9-3.2c0.5-1.1,0.7-2.3,0.7-3.7v-0.9h-3.1V20c-0.1,3.8-1.8,5.9-4.7,6.8l0.8,1.9
			c0.2,0.4,0.6,0.6,1.1,0.4c1.4-0.5,2.8-1.5,3.8-2.8l0.1-0.1l3.6,2.4C256.1,29.2,256.6,29.2,257,28.6z"/>
		<path class="st0" d="M231.2,23.2v-3.7H228v4.3c0,1.3,0.6,2,2,2h13.2v-2.5L231.2,23.2L231.2,23.2z"/>
	</g>
	<g>
		<g>
			<path class="st0" d="M247.3,47.3c0-1.7,1-2.7,2.5-2.8c1.5,0,2.5,1.1,2.5,2.8c0,1.6-1,2.7-2.5,2.7S247.3,48.9,247.3,47.3z
				 M249.9,49c0.8,0,1.3-0.8,1.3-1.7c0-1-0.4-1.7-1.3-1.7s-1.3,0.8-1.3,1.7C248.6,48.2,249,49,249.9,49z"/>
			<path class="st0" d="M253.2,47.3c0-1.7,1-2.7,2.5-2.8c1.5,0,2.5,1.1,2.5,2.8c0,1.6-1,2.7-2.5,2.7
				C254.1,49.9,253.1,48.9,253.2,47.3z M255.7,49c0.8,0,1.3-0.8,1.3-1.7c0-1-0.4-1.7-1.3-1.7c-0.9,0-1.3,0.8-1.3,1.7
				C254.4,48.2,254.8,49,255.7,49z"/>
			<path class="st0" d="M263.4,42.8c-0.5,0-0.7,0.2-0.7,0.4v2.2l0,0c-0.2-0.4-0.6-0.9-1.5-0.9c-1.2,0-2.2,1-2.2,2.7s0.9,2.7,2.2,2.7
				c0.9,0,1.3-0.5,1.5-0.9h0.1v0.8h0.6c0.5,0,0.7-0.2,0.7-0.4v-6.7L263.4,42.8L263.4,42.8z M261.5,49c-0.8,0-1.3-0.7-1.3-1.7
				c0-1,0.4-1.7,1.3-1.7c0.8,0,1.2,0.7,1.2,1.7C262.8,48.3,262.3,49,261.5,49z"/>
			<path class="st0" d="M243.1,42.8c-0.5,0-0.7,0.2-0.7,0.7v6.4h0.6c0.5,0,0.7-0.2,0.7-0.4v-2.6h2.5c0.2,0,0.4-0.1,0.4-0.7v-0.4h-3
				v-1.9h2.8c0.2,0,0.4-0.1,0.4-0.7v-0.4C246.8,42.8,243.1,42.8,243.1,42.8z"/>
		</g>
		<g>
			<path class="st0" d="M136.3,47.3c0-1.7,1-2.7,2.5-2.8c1.5,0,2.5,1.1,2.5,2.8c0,1.6-1,2.7-2.5,2.7S136.3,48.9,136.3,47.3z
				 M138.9,49c0.8,0,1.3-0.8,1.3-1.7c0-1-0.4-1.7-1.3-1.7s-1.3,0.8-1.3,1.7C137.6,48.2,138,49,138.9,49z"/>
			<path class="st0" d="M153.8,44.5c-1.3,0-2.1,0.7-2.2,1.6h1.2c0.1-0.4,0.4-0.6,1-0.6s1,0.3,1,0.8v0.4c-0.2,0-1,0-1.4,0.1
				c-1,0.1-2,0.4-2,1.6c0,1,0.8,1.6,1.8,1.6c0.8,0,1.3-0.4,1.6-0.8l0,0v0.7h0.5c0.5,0,0.7-0.2,0.7-0.4v-3.1
				C155.9,44.9,154.8,44.5,153.8,44.5z M154.7,48c0,0.6-0.5,1.1-1.2,1.1c-0.5,0-0.9-0.2-0.9-0.7s0.4-0.7,1-0.8
				c0.2,0,0.9-0.1,1.2-0.1L154.7,48L154.7,48z"/>
			<path class="st0" d="M145.4,44.6c-0.1,0-0.3,0-0.5,0c-0.6,0-1.1,0.3-1.3,1h-0.1v-0.9H143c-0.5,0-0.7,0.2-0.7,0.4v4.9h0.6
				c0.5,0,0.7-0.2,0.7-0.4v-2.7c0-0.7,0.5-1.1,1.2-1.2c0.1,0,0.2,0,0.3,0c0.2,0,0.3-0.1,0.4-0.4c0.1-0.3,0.1-0.6,0.1-0.6
				S145.5,44.6,145.4,44.6z"/>
			<path class="st0" d="M133.5,46l2.7-3.2h-1c-0.4,0-0.6,0.1-0.9,0.4l-2.4,2.8h-0.1v-3.3h-0.6c-0.5,0-0.7,0.2-0.7,0.4v6.7h0.6
				c0.5,0,0.7-0.2,0.7-0.4v-1.7l0.8-0.9l1.9,2.7c0.2,0.3,0.3,0.4,0.7,0.4h1L133.5,46z"/>
			<path class="st0" d="M148.3,49c-0.8,0-1.3-0.5-1.4-1.4h3.3c0.3,0,0.4-0.1,0.4-0.4l0,0c0-1.9-1.1-2.7-2.4-2.7
				c-1.5,0-2.5,1.1-2.5,2.8c0,1.7,1,2.7,2.6,2.7c1.2,0,2.1-0.6,2.3-1.5h-1.2C149.2,48.8,148.9,49,148.3,49z M148.3,45.5
				c0.7,0,1.2,0.5,1.2,1.2H147C147,46.1,147.5,45.5,148.3,45.5z"/>
		</g>
		<g>
			<path class="st0" d="M174.4,44.5c-1.3,0-2.1,0.7-2.2,1.6h1.2c0.1-0.4,0.4-0.6,1-0.6c0.6,0,1,0.3,1,0.8v0.4c-0.2,0-1,0-1.4,0.1
				c-1,0.1-2,0.4-2,1.6c0,1,0.8,1.6,1.8,1.6c0.8,0,1.3-0.4,1.6-0.8l0,0v0.7h0.5c0.5,0,0.7-0.2,0.7-0.4v-3.1
				C176.5,44.9,175.4,44.5,174.4,44.5z M175.3,48c0,0.6-0.5,1.1-1.2,1.1c-0.5,0-0.9-0.2-0.9-0.7s0.4-0.7,1-0.8
				c0.2,0,0.9-0.1,1.2-0.1L175.3,48L175.3,48z"/>
			<path class="st0" d="M164.8,42.8c-0.5,0-0.7,0.2-0.7,0.4v2.6h-3.3v-3h-0.6c-0.5,0-0.7,0.2-0.7,0.4v6.7h0.6c0.5,0,0.7-0.2,0.7-0.4
				v-2.6h3.3v3h0.6c0.5,0,0.7-0.2,0.7-0.4v-6.7H164.8z"/>
			<path class="st0" d="M178.4,42.8c-0.5,0-0.7,0.2-0.7,0.4v6.7h0.6c0.5,0,0.7-0.2,0.7-0.4v-6.7H178.4z"/>
			<path class="st0" d="M186.7,44.5c-0.8,0-1.3,0.4-1.6,1H185v-2.7h-0.6c-0.5,0-0.7,0.2-0.7,0.4v6.7h0.6c0.5,0,0.7-0.2,0.7-0.4v-2.7
				c0-0.8,0.5-1.2,1.2-1.2c0.6,0,1,0.4,1,1.1v3.2h0.6c0.5,0,0.7-0.2,0.7-0.4v-3C188.5,45.2,187.8,44.5,186.7,44.5z"/>
			<path class="st0" d="M182.3,48.9c-0.3,0-0.6-0.1-0.6-0.6v-2.7h0.7c0.2,0,0.4-0.1,0.4-0.5v-0.4h-1v-1.3h-0.6
				c-0.5,0-0.7,0.2-0.7,0.4v0.9h-0.4c-0.2,0-0.4,0.1-0.4,0.5v0.4h0.8v3c0,1,0.7,1.4,1.6,1.5c0.3,0,0.6,0,0.7-0.1v-1
				C182.7,48.9,182.5,48.9,182.3,48.9z"/>
			<path class="st0" d="M168.9,49c-0.8,0-1.3-0.5-1.4-1.4h3.3c0.3,0,0.4-0.1,0.4-0.4l0,0c0-1.9-1.1-2.7-2.4-2.7
				c-1.5,0-2.5,1.1-2.5,2.8c0,1.7,1,2.7,2.6,2.7c1.2,0,2.1-0.6,2.3-1.5H170C169.8,48.8,169.5,49,168.9,49z M168.8,45.5
				c0.7,0,1.2,0.5,1.2,1.2h-2.4C167.7,46.1,168.1,45.5,168.8,45.5z"/>
		</g>
		<g>
			<path class="st0" d="M220.2,47.3c0-1.7,1-2.7,2.5-2.8c1.5,0,2.5,1.1,2.5,2.8c0,1.6-1,2.7-2.5,2.7
				C221.2,49.9,220.2,48.9,220.2,47.3z M222.7,49c0.8,0,1.3-0.8,1.3-1.7c0-1-0.4-1.7-1.3-1.7s-1.3,0.8-1.3,1.7
				C221.4,48.2,221.9,49,222.7,49z"/>
			<path class="st0" d="M234.2,44.5c-1.3,0-2.1,0.7-2.2,1.6h1.2c0.1-0.4,0.4-0.6,1-0.6c0.6,0,1,0.3,1,0.8v0.4c-0.2,0-1,0-1.4,0.1
				c-1,0.1-2,0.4-2,1.6c0,1,0.8,1.6,1.8,1.6c0.8,0,1.3-0.4,1.6-0.8l0,0v0.7h0.5c0.5,0,0.7-0.2,0.7-0.4v-3.1
				C236.4,44.9,235.2,44.5,234.2,44.5z M235.1,48c0,0.6-0.5,1.1-1.2,1.1c-0.5,0-0.9-0.2-0.9-0.7s0.4-0.7,1-0.8
				c0.2,0,0.9-0.1,1.2-0.1L235.1,48L235.1,48z"/>
			<path class="st0" d="M218.6,44.6c-0.5,0-0.7,0.2-0.7,0.4v4.9h0.6c0.5,0,0.7-0.2,0.7-0.4v-4.9H218.6z"/>
			<path class="st0" d="M218.6,42.5c-0.5,0-0.7,0.2-0.7,0.4v0.9h0.6c0.5,0,0.7-0.2,0.7-0.4v-0.9H218.6z"/>
			<path class="st0" d="M238.2,42.8c-0.5,0-0.7,0.2-0.7,0.4v6.7h0.6c0.5,0,0.7-0.2,0.7-0.4v-6.7H238.2z"/>
			<path class="st0" d="M201.4,44.6c-0.5,0-0.7,0.2-0.7,0.4v2.6c0,0.8-0.6,1.2-1.1,1.2c-0.6,0-1-0.4-1-1.1v-3.2H198
				c-0.5,0-0.7,0.2-0.7,0.4v3c0,1.3,0.7,2,1.8,2c0.8,0,1.4-0.4,1.6-1h0.1v0.9h0.5c0.5,0,0.7-0.2,0.7-0.4v-4.9L201.4,44.6L201.4,44.6
				z"/>
			<path class="st0" d="M206,44.5c-0.8,0-1.3,0.4-1.6,1h-0.1v-0.9h-0.5c-0.5,0-0.7,0.2-0.7,0.4v4.9h0.6c0.5,0,0.7-0.2,0.7-0.4v-2.7
				c0-0.8,0.5-1.2,1.1-1.2c0.7,0,1,0.4,1,1.1v3.2h0.6c0.5,0,0.7-0.2,0.7-0.4v-3C207.8,45.3,207.1,44.5,206,44.5z"/>
			<path class="st0" d="M229.1,44.5c-0.8,0-1.3,0.4-1.6,1h-0.1v-0.9h-0.5c-0.5,0-0.7,0.2-0.7,0.4v4.9h0.6c0.5,0,0.7-0.2,0.7-0.4
				v-2.7c0-0.8,0.5-1.2,1.1-1.2c0.7,0,1,0.4,1,1.1v3.2h0.6c0.5,0,0.7-0.2,0.7-0.4v-3C230.9,45.3,230.1,44.5,229.1,44.5z"/>
			<path class="st0" d="M216.5,48.9c-0.3,0-0.6-0.1-0.6-0.6v-2.7h0.7c0.2,0,0.4-0.1,0.4-0.5v-0.4h-1v-1.3h-0.6
				c-0.5,0-0.7,0.2-0.7,0.4v0.9h-0.4c-0.2,0-0.4,0.1-0.4,0.5v0.4h0.8v3c0,1,0.7,1.4,1.6,1.5c0.3,0,0.6,0,0.7-0.1v-1
				C216.9,48.9,216.7,48.9,216.5,48.9z"/>
			<path class="st0" d="M192.9,42.8c-0.5,0-0.7,0.2-0.7,0.7v6.4h0.6c0.5,0,0.7-0.2,0.7-0.4v-2.6h2.5c0.2,0,0.4-0.1,0.4-0.7v-0.4h-3
				v-1.9h2.8c0.2,0,0.4-0.1,0.4-0.7v-0.4C196.6,42.8,192.9,42.8,192.9,42.8z"/>
			<path class="st0" d="M213.1,48.1h-0.7c-0.1,0.6-0.5,0.9-1.1,0.9c-0.8,0-1.3-0.6-1.3-1.7c0-1.1,0.5-1.7,1.3-1.7
				c0.6,0,1,0.4,1.1,0.9h0.7c0.4,0,0.4-0.2,0.4-0.5c-0.3-0.9-1.1-1.4-2.2-1.4c-1.5,0-2.5,1.1-2.5,2.8c0,1.6,0.9,2.7,2.5,2.7
				c1.1,0,1.9-0.6,2.2-1.4C213.6,48.3,213.5,48.1,213.1,48.1z"/>
		</g>
		<g>
			<path class="st0" d="M284.6,47.3c0-1.7,1-2.7,2.5-2.8c1.5,0,2.5,1.1,2.5,2.8c0,1.6-1,2.7-2.5,2.7S284.6,48.9,284.6,47.3z
				 M287.1,49c0.8,0,1.3-0.8,1.3-1.7c0-1-0.4-1.7-1.3-1.7s-1.3,0.8-1.3,1.7C285.8,48.2,286.3,49,287.1,49z"/>
			<path class="st0" d="M309.8,47.3c0-1.7,1-2.7,2.5-2.8c1.5,0,2.5,1.1,2.5,2.8c0,1.6-1,2.7-2.5,2.7S309.8,48.9,309.8,47.3z
				 M312.3,49c0.8,0,1.3-0.8,1.3-1.7c0-1-0.4-1.7-1.3-1.7s-1.3,0.8-1.3,1.7C311.1,48.2,311.5,49,312.3,49z"/>
			<path class="st0" d="M300.7,44.5c-1.3,0-2.1,0.7-2.2,1.6h1.2c0.1-0.4,0.4-0.6,1-0.6s1,0.3,1,0.8v0.4c-0.2,0-1,0-1.4,0.1
				c-1,0.1-2,0.4-2,1.6c0,1,0.8,1.6,1.8,1.6c0.8,0,1.3-0.4,1.6-0.8l0,0v0.7h0.5c0.5,0,0.7-0.2,0.7-0.4v-3.1
				C302.8,44.9,301.7,44.5,300.7,44.5z M301.6,48c0,0.6-0.5,1.1-1.2,1.1c-0.5,0-0.9-0.2-0.9-0.7s0.4-0.7,1-0.8
				c0.2,0,0.9-0.1,1.2-0.1L301.6,48L301.6,48z"/>
			<path class="st0" d="M296.7,42.5c-0.5,0-0.7,0.2-0.7,0.4v0.9h0.6c0.5,0,0.7-0.2,0.7-0.4v-0.9H296.7z"/>
			<path class="st0" d="M308.3,42.5c-0.5,0-0.7,0.2-0.7,0.4v0.9h0.6c0.5,0,0.7-0.2,0.7-0.4v-0.9H308.3z"/>
			<path class="st0" d="M296.7,44.6c-0.5,0-0.7,0.2-0.7,0.4v4.9h0.6c0.5,0,0.7-0.2,0.7-0.4v-4.9H296.7z"/>
			<path class="st0" d="M308.3,44.6c-0.5,0-0.7,0.2-0.7,0.4v4.9h0.6c0.5,0,0.7-0.2,0.7-0.4v-4.9H308.3z"/>
			<path class="st0" d="M318.6,44.5c-0.8,0-1.3,0.4-1.6,1h-0.1v-0.9h-0.5c-0.5,0-0.7,0.2-0.7,0.4v4.9h0.6c0.5,0,0.7-0.2,0.7-0.4
				v-2.7c0-0.8,0.5-1.2,1.1-1.2c0.7,0,1,0.4,1,1.1v3.2h0.6c0.5,0,0.7-0.2,0.7-0.4v-3C320.4,45.3,319.7,44.5,318.6,44.5z"/>
			<path class="st0" d="M306.2,48.9c-0.3,0-0.6-0.1-0.6-0.6v-2.7h0.7c0.2,0,0.4-0.1,0.4-0.5v-0.4h-1v-1.3h-0.6
				c-0.5,0-0.7,0.2-0.7,0.4v0.9H304c-0.2,0-0.4,0.1-0.4,0.5v0.4h0.8v3c0,1,0.7,1.4,1.6,1.5c0.3,0,0.6,0,0.7-0.1v-1
				C306.6,48.9,306.3,48.9,306.2,48.9z"/>
			<path class="st0" d="M271.2,42.8h-0.9c-0.5,0-0.8,0.1-0.9,0.4l-2.3,6.6h0.7c0.5,0,0.7-0.2,0.8-0.4l0.4-1.3h2.7l0.4,1.3
				c0.1,0.2,0.2,0.4,0.8,0.4h0.7L271.2,42.8z M269.4,47.1l1-2.8h0.1l0.9,2.8H269.4z"/>
			<path class="st0" d="M294.7,48.1H294c-0.1,0.6-0.5,0.9-1.1,0.9c-0.8,0-1.3-0.6-1.3-1.7c0-1.1,0.5-1.7,1.3-1.7
				c0.6,0,1,0.4,1.1,0.9h0.7c0.4,0,0.4-0.2,0.4-0.5c-0.3-0.9-1.1-1.4-2.2-1.4c-1.5,0-2.5,1.1-2.5,2.8c0,1.6,0.9,2.7,2.5,2.7
				c1.1,0,1.9-0.6,2.2-1.4C295.2,48.3,295.2,48.1,294.7,48.1z"/>
			<path class="st0" d="M277.1,46.9l-0.9-0.2c-0.5-0.1-0.8-0.3-0.8-0.6c0-0.4,0.4-0.6,0.9-0.6s0.9,0.2,0.9,0.6h0.7
				c0.4,0,0.5-0.2,0.4-0.5c-0.3-0.7-1-1.1-2-1.1c-1.3,0-2.1,0.6-2.1,1.6c0,0.7,0.5,1.3,1.5,1.5l0.9,0.2c0.5,0.1,0.8,0.3,0.8,0.6
				c0,0.4-0.4,0.6-1,0.6c-0.6,0-0.9-0.2-1-0.7h-0.7c-0.4,0-0.5,0.2-0.4,0.4c0.3,0.8,1,1.2,2.2,1.2c1.4,0,2.2-0.7,2.2-1.7
				C278.6,47.6,278.1,47.1,277.1,46.9z"/>
			<path class="st0" d="M282.4,46.9l-0.9-0.2c-0.5-0.1-0.8-0.3-0.8-0.6c0-0.4,0.4-0.6,0.9-0.6s0.9,0.2,0.9,0.6h0.7
				c0.4,0,0.5-0.2,0.4-0.5c-0.3-0.7-1-1.1-2-1.1c-1.3,0-2.1,0.6-2.1,1.6c0,0.7,0.5,1.3,1.5,1.5l0.9,0.2c0.5,0.1,0.8,0.3,0.8,0.6
				c0,0.4-0.4,0.6-1,0.6s-0.9-0.2-1-0.7H280c-0.4,0-0.5,0.2-0.4,0.4c0.3,0.8,1,1.2,2.2,1.2c1.4,0,2.2-0.7,2.2-1.7
				C283.9,47.6,283.4,47.1,282.4,46.9z"/>
		</g>
	</g>
</g>
</svg>
