<svg width="659" height="438" viewBox="0 0 659 438" fill="none" xmlns="http://www.w3.org/2000/svg">
<g style="mix-blend-mode:multiply">
<line x1="34.5" y1="13" x2="34.5" y2="411" stroke="#646C70"/>
<g style="mix-blend-mode:multiply">
<line x1="34" y1="12.5" x2="659" y2="12.5" stroke="#EEF1F1"/>
</g>
<g style="mix-blend-mode:multiply">
<line x1="34" y1="43.1172" x2="659" y2="43.1172" stroke="#EEF1F1"/>
</g>
<g style="mix-blend-mode:multiply">
<line x1="34" y1="73.7305" x2="659" y2="73.7305" stroke="#EEF1F1"/>
</g>
<g style="mix-blend-mode:multiply">
<line x1="34" y1="104.348" x2="659" y2="104.348" stroke="#EEF1F1"/>
</g>
<g style="mix-blend-mode:multiply">
<line x1="34" y1="134.961" x2="659" y2="134.961" stroke="#EEF1F1"/>
</g>
<g style="mix-blend-mode:multiply">
<line x1="34" y1="165.578" x2="659" y2="165.578" stroke="#EEF1F1"/>
</g>
<g style="mix-blend-mode:multiply">
<line x1="34" y1="196.191" x2="659" y2="196.191" stroke="#EEF1F1"/>
</g>
<g style="mix-blend-mode:multiply">
<line x1="34" y1="226.809" x2="659" y2="226.809" stroke="#EEF1F1"/>
</g>
<g style="mix-blend-mode:multiply">
<line x1="34" y1="257.422" x2="659" y2="257.422" stroke="#EEF1F1"/>
</g>
<g style="mix-blend-mode:multiply">
<line x1="34" y1="288.039" x2="659" y2="288.039" stroke="#EEF1F1"/>
</g>
<g style="mix-blend-mode:multiply">
<line x1="34" y1="318.652" x2="659" y2="318.652" stroke="#EEF1F1"/>
</g>
<g style="mix-blend-mode:multiply">
<line x1="34" y1="349.27" x2="659" y2="349.27" stroke="#EEF1F1"/>
</g>
<g style="mix-blend-mode:multiply">
<line x1="34" y1="379.883" x2="659" y2="379.883" stroke="#EEF1F1"/>
</g>
<g style="mix-blend-mode:multiply">
<line x1="34" y1="410.5" x2="659" y2="410.5" stroke="#646C70"/>
</g>
<path d="M70 26C70 23.7909 71.7909 22 74 22H110C112.209 22 114 23.7909 114 26V410H70V26Z" fill="#25C9EF"/>
<path d="M143 308C143 305.791 144.791 304 147 304H183C185.209 304 187 305.791 187 308V410H143V308Z" fill="#25C9EF"/>
<path d="M216 275C216 272.791 217.791 271 220 271H256C258.209 271 260 272.791 260 275V410H216V275Z" fill="#25C9EF"/>
<path d="M289 267C289 264.791 290.791 263 293 263H329C331.209 263 333 264.791 333 267V410H289V267Z" fill="#25C9EF"/>
<path d="M362 242C362 239.791 363.791 238 366 238H402C404.209 238 406 239.791 406 242V410H362V242Z" fill="#25C9EF"/>
<path d="M435 235C435 232.791 436.791 231 439 231H474C476.209 231 478 232.791 478 235V410H435V235Z" fill="#25C9EF"/>
<path d="M507 216C507 213.791 508.791 212 511 212H547C549.209 212 551 213.791 551 216V410H507V216Z" fill="#25C9EF"/>
<path d="M580 253C580 250.791 581.791 249 584 249H619C621.209 249 623 250.791 623 253V410H580V253Z" fill="#25C9EF"/>
</g>
<path d="M3.543 21.156C5.103 21.156 6.363 20.22 6.363 18.648C6.363 17.448 5.535 16.656 4.503 16.416V16.368C5.427 16.02 6.063 15.312 6.063 14.244C6.063 12.852 4.983 12.036 3.507 12.036C2.487 12.036 1.707 12.48 1.047 13.092L1.635 13.788C2.127 13.284 2.751 12.936 3.459 12.936C4.371 12.936 4.947 13.488 4.947 14.328C4.947 15.276 4.323 16.008 2.511 16.008V16.848C4.539 16.848 5.247 17.556 5.247 18.6C5.247 19.62 4.503 20.244 3.459 20.244C2.463 20.244 1.791 19.776 1.275 19.236L0.723 19.956C1.299 20.58 2.163 21.156 3.543 21.156ZM10.3673 21.156C12.0353 21.156 13.1033 19.632 13.1033 16.572C13.1033 13.524 12.0353 12.036 10.3673 12.036C8.68725 12.036 7.61925 13.512 7.61925 16.572C7.61925 19.632 8.68725 21.156 10.3673 21.156ZM10.3673 20.28C9.35925 20.28 8.68725 19.164 8.68725 16.572C8.68725 14.004 9.35925 12.912 10.3673 12.912C11.3633 12.912 12.0353 14.004 12.0353 16.572C12.0353 19.164 11.3633 20.28 10.3673 20.28ZM17.0235 21.156C18.6915 21.156 19.7595 19.632 19.7595 16.572C19.7595 13.524 18.6915 12.036 17.0235 12.036C15.3435 12.036 14.2755 13.512 14.2755 16.572C14.2755 19.632 15.3435 21.156 17.0235 21.156ZM17.0235 20.28C16.0155 20.28 15.3435 19.164 15.3435 16.572C15.3435 14.004 16.0155 12.912 17.0235 12.912C18.0195 12.912 18.6915 14.004 18.6915 16.572C18.6915 19.164 18.0195 20.28 17.0235 20.28ZM23.6798 21.156C25.3478 21.156 26.4158 19.632 26.4158 16.572C26.4158 13.524 25.3478 12.036 23.6798 12.036C21.9998 12.036 20.9318 13.512 20.9318 16.572C20.9318 19.632 21.9998 21.156 23.6798 21.156ZM23.6798 20.28C22.6718 20.28 21.9998 19.164 21.9998 16.572C21.9998 14.004 22.6718 12.912 23.6798 12.912C24.6758 12.912 25.3478 14.004 25.3478 16.572C25.3478 19.164 24.6758 20.28 23.6798 20.28Z" fill="#9BA5AB"/>
<path d="M0.903 51H6.435V50.052H3.999C3.555 50.052 3.015 50.1 2.559 50.136C4.623 48.18 6.003 46.392 6.003 44.64C6.003 43.068 5.019 42.036 3.447 42.036C2.331 42.036 1.575 42.552 0.855 43.332L1.491 43.956C1.971 43.38 2.595 42.936 3.315 42.936C4.407 42.936 4.935 43.668 4.935 44.676C4.935 46.188 3.663 47.94 0.903 50.352V51ZM10.3793 51.156C12.0353 51.156 13.1393 50.16 13.1393 48.876C13.1393 47.676 12.4193 47.016 11.6513 46.572V46.512C12.1793 46.104 12.8273 45.312 12.8273 44.388C12.8273 43.032 11.9153 42.072 10.4153 42.072C9.04725 42.072 8.00325 42.96 8.00325 44.304C8.00325 45.228 8.54325 45.888 9.19125 46.332V46.392C8.38725 46.824 7.57125 47.64 7.57125 48.816C7.57125 50.172 8.75925 51.156 10.3793 51.156ZM10.9793 46.224C9.94725 45.816 8.99925 45.36 8.99925 44.304C8.99925 43.452 9.58725 42.876 10.4033 42.876C11.3513 42.876 11.8913 43.584 11.8913 44.448C11.8913 45.096 11.5793 45.696 10.9793 46.224ZM10.4033 50.34C9.34725 50.34 8.56725 49.656 8.56725 48.72C8.56725 47.88 9.05925 47.184 9.76725 46.728C11.0153 47.232 12.0953 47.676 12.0953 48.852C12.0953 49.728 11.4113 50.34 10.4033 50.34ZM17.0235 51.156C18.6915 51.156 19.7595 49.632 19.7595 46.572C19.7595 43.524 18.6915 42.036 17.0235 42.036C15.3435 42.036 14.2755 43.512 14.2755 46.572C14.2755 49.632 15.3435 51.156 17.0235 51.156ZM17.0235 50.28C16.0155 50.28 15.3435 49.164 15.3435 46.572C15.3435 44.004 16.0155 42.912 17.0235 42.912C18.0195 42.912 18.6915 44.004 18.6915 46.572C18.6915 49.164 18.0195 50.28 17.0235 50.28ZM23.6798 51.156C25.3478 51.156 26.4158 49.632 26.4158 46.572C26.4158 43.524 25.3478 42.036 23.6798 42.036C21.9998 42.036 20.9318 43.512 20.9318 46.572C20.9318 49.632 21.9998 51.156 23.6798 51.156ZM23.6798 50.28C22.6718 50.28 21.9998 49.164 21.9998 46.572C21.9998 44.004 22.6718 42.912 23.6798 42.912C24.6758 42.912 25.3478 44.004 25.3478 46.572C25.3478 49.164 24.6758 50.28 23.6798 50.28Z" fill="#9BA5AB"/>
<path d="M0.903 81H6.435V80.052H3.999C3.555 80.052 3.015 80.1 2.559 80.136C4.623 78.18 6.003 76.392 6.003 74.64C6.003 73.068 5.019 72.036 3.447 72.036C2.331 72.036 1.575 72.552 0.855 73.332L1.491 73.956C1.971 73.38 2.595 72.936 3.315 72.936C4.407 72.936 4.935 73.668 4.935 74.676C4.935 76.188 3.663 77.94 0.903 80.352V81ZM10.5473 76.356C11.6153 76.356 12.1433 77.112 12.1433 78.3C12.1433 79.5 11.4833 80.304 10.6433 80.304C9.53925 80.304 8.87925 79.308 8.74725 77.484C9.28725 76.68 9.99525 76.356 10.5473 76.356ZM10.6433 81.156C12.0113 81.156 13.1633 80.004 13.1633 78.3C13.1633 76.464 12.2153 75.54 10.7273 75.54C10.0312 75.54 9.26325 75.948 8.72325 76.608C8.77125 73.872 9.79125 72.948 10.9913 72.948C11.5313 72.948 12.0593 73.2 12.4073 73.62L13.0073 72.936C12.5273 72.42 11.8673 72.036 10.9553 72.036C9.25125 72.036 7.70325 73.356 7.70325 76.8C7.70325 79.704 8.95125 81.156 10.6433 81.156ZM17.0235 81.156C18.6915 81.156 19.7595 79.632 19.7595 76.572C19.7595 73.524 18.6915 72.036 17.0235 72.036C15.3435 72.036 14.2755 73.512 14.2755 76.572C14.2755 79.632 15.3435 81.156 17.0235 81.156ZM17.0235 80.28C16.0155 80.28 15.3435 79.164 15.3435 76.572C15.3435 74.004 16.0155 72.912 17.0235 72.912C18.0195 72.912 18.6915 74.004 18.6915 76.572C18.6915 79.164 18.0195 80.28 17.0235 80.28ZM23.6798 81.156C25.3478 81.156 26.4158 79.632 26.4158 76.572C26.4158 73.524 25.3478 72.036 23.6798 72.036C21.9998 72.036 20.9318 73.512 20.9318 76.572C20.9318 79.632 21.9998 81.156 23.6798 81.156ZM23.6798 80.28C22.6718 80.28 21.9998 79.164 21.9998 76.572C21.9998 74.004 22.6718 72.912 23.6798 72.912C24.6758 72.912 25.3478 74.004 25.3478 76.572C25.3478 79.164 24.6758 80.28 23.6798 80.28Z" fill="#9BA5AB"/>
<path d="M0.903 111H6.435V110.052H3.999C3.555 110.052 3.015 110.1 2.559 110.136C4.623 108.18 6.003 106.392 6.003 104.64C6.003 103.068 5.019 102.036 3.447 102.036C2.331 102.036 1.575 102.552 0.855 103.332L1.491 103.956C1.971 103.38 2.595 102.936 3.315 102.936C4.407 102.936 4.935 103.668 4.935 104.676C4.935 106.188 3.663 107.94 0.903 110.352V111ZM8.41125 107.7L10.4153 104.7C10.6673 104.268 10.9073 103.836 11.1233 103.404H11.1713C11.1473 103.86 11.1113 104.568 11.1113 105V107.7H8.41125ZM11.1113 111H12.1433V108.576H13.3073V107.7H12.1433V102.192H10.9313L7.27125 107.856V108.576H11.1113V111ZM17.0235 111.156C18.6915 111.156 19.7595 109.632 19.7595 106.572C19.7595 103.524 18.6915 102.036 17.0235 102.036C15.3435 102.036 14.2755 103.512 14.2755 106.572C14.2755 109.632 15.3435 111.156 17.0235 111.156ZM17.0235 110.28C16.0155 110.28 15.3435 109.164 15.3435 106.572C15.3435 104.004 16.0155 102.912 17.0235 102.912C18.0195 102.912 18.6915 104.004 18.6915 106.572C18.6915 109.164 18.0195 110.28 17.0235 110.28ZM23.6798 111.156C25.3478 111.156 26.4158 109.632 26.4158 106.572C26.4158 103.524 25.3478 102.036 23.6798 102.036C21.9998 102.036 20.9318 103.512 20.9318 106.572C20.9318 109.632 21.9998 111.156 23.6798 111.156ZM23.6798 110.28C22.6718 110.28 21.9998 109.164 21.9998 106.572C21.9998 104.004 22.6718 102.912 23.6798 102.912C24.6758 102.912 25.3478 104.004 25.3478 106.572C25.3478 109.164 24.6758 110.28 23.6798 110.28Z" fill="#9BA5AB"/>
<path d="M0.903 141H6.435V140.052H3.999C3.555 140.052 3.015 140.1 2.559 140.136C4.623 138.18 6.003 136.392 6.003 134.64C6.003 133.068 5.019 132.036 3.447 132.036C2.331 132.036 1.575 132.552 0.855 133.332L1.491 133.956C1.971 133.38 2.595 132.936 3.315 132.936C4.407 132.936 4.935 133.668 4.935 134.676C4.935 136.188 3.663 137.94 0.903 140.352V141ZM7.55925 141H13.0912V140.052H10.6553C10.2113 140.052 9.67125 140.1 9.21525 140.136C11.2793 138.18 12.6593 136.392 12.6593 134.64C12.6593 133.068 11.6753 132.036 10.1033 132.036C8.98725 132.036 8.23125 132.552 7.51125 133.332L8.14725 133.956C8.62725 133.38 9.25125 132.936 9.97125 132.936C11.0633 132.936 11.5913 133.668 11.5913 134.676C11.5913 136.188 10.3193 137.94 7.55925 140.352V141ZM17.0235 141.156C18.6915 141.156 19.7595 139.632 19.7595 136.572C19.7595 133.524 18.6915 132.036 17.0235 132.036C15.3435 132.036 14.2755 133.512 14.2755 136.572C14.2755 139.632 15.3435 141.156 17.0235 141.156ZM17.0235 140.28C16.0155 140.28 15.3435 139.164 15.3435 136.572C15.3435 134.004 16.0155 132.912 17.0235 132.912C18.0195 132.912 18.6915 134.004 18.6915 136.572C18.6915 139.164 18.0195 140.28 17.0235 140.28ZM23.6798 141.156C25.3478 141.156 26.4158 139.632 26.4158 136.572C26.4158 133.524 25.3478 132.036 23.6798 132.036C21.9998 132.036 20.9318 133.512 20.9318 136.572C20.9318 139.632 21.9998 141.156 23.6798 141.156ZM23.6798 140.28C22.6718 140.28 21.9998 139.164 21.9998 136.572C21.9998 134.004 22.6718 132.912 23.6798 132.912C24.6758 132.912 25.3478 134.004 25.3478 136.572C25.3478 139.164 24.6758 140.28 23.6798 140.28Z" fill="#9BA5AB"/>
<path d="M0.903 171H6.435V170.052H3.999C3.555 170.052 3.015 170.1 2.559 170.136C4.623 168.18 6.003 166.392 6.003 164.64C6.003 163.068 5.019 162.036 3.447 162.036C2.331 162.036 1.575 162.552 0.855 163.332L1.491 163.956C1.971 163.38 2.595 162.936 3.315 162.936C4.407 162.936 4.935 163.668 4.935 164.676C4.935 166.188 3.663 167.94 0.903 170.352V171ZM10.3673 171.156C12.0353 171.156 13.1033 169.632 13.1033 166.572C13.1033 163.524 12.0353 162.036 10.3673 162.036C8.68725 162.036 7.61925 163.512 7.61925 166.572C7.61925 169.632 8.68725 171.156 10.3673 171.156ZM10.3673 170.28C9.35925 170.28 8.68725 169.164 8.68725 166.572C8.68725 164.004 9.35925 162.912 10.3673 162.912C11.3633 162.912 12.0353 164.004 12.0353 166.572C12.0353 169.164 11.3633 170.28 10.3673 170.28ZM17.0235 171.156C18.6915 171.156 19.7595 169.632 19.7595 166.572C19.7595 163.524 18.6915 162.036 17.0235 162.036C15.3435 162.036 14.2755 163.512 14.2755 166.572C14.2755 169.632 15.3435 171.156 17.0235 171.156ZM17.0235 170.28C16.0155 170.28 15.3435 169.164 15.3435 166.572C15.3435 164.004 16.0155 162.912 17.0235 162.912C18.0195 162.912 18.6915 164.004 18.6915 166.572C18.6915 169.164 18.0195 170.28 17.0235 170.28ZM23.6798 171.156C25.3478 171.156 26.4158 169.632 26.4158 166.572C26.4158 163.524 25.3478 162.036 23.6798 162.036C21.9998 162.036 20.9318 163.512 20.9318 166.572C20.9318 169.632 21.9998 171.156 23.6798 171.156ZM23.6798 170.28C22.6718 170.28 21.9998 169.164 21.9998 166.572C21.9998 164.004 22.6718 162.912 23.6798 162.912C24.6758 162.912 25.3478 164.004 25.3478 166.572C25.3478 169.164 24.6758 170.28 23.6798 170.28Z" fill="#9BA5AB"/>
<path d="M1.431 201H6.255V200.088H4.491V192.192H3.651C3.171 192.48 2.607 192.684 1.827 192.828V193.524H3.387V200.088H1.431V201ZM8.41125 197.7L10.4153 194.7C10.6673 194.268 10.9073 193.836 11.1233 193.404H11.1713C11.1473 193.86 11.1113 194.568 11.1113 195V197.7H8.41125ZM11.1113 201H12.1433V198.576H13.3073V197.7H12.1433V192.192H10.9313L7.27125 197.856V198.576H11.1113V201ZM17.0235 201.156C18.6915 201.156 19.7595 199.632 19.7595 196.572C19.7595 193.524 18.6915 192.036 17.0235 192.036C15.3435 192.036 14.2755 193.512 14.2755 196.572C14.2755 199.632 15.3435 201.156 17.0235 201.156ZM17.0235 200.28C16.0155 200.28 15.3435 199.164 15.3435 196.572C15.3435 194.004 16.0155 192.912 17.0235 192.912C18.0195 192.912 18.6915 194.004 18.6915 196.572C18.6915 199.164 18.0195 200.28 17.0235 200.28ZM23.6798 201.156C25.3478 201.156 26.4158 199.632 26.4158 196.572C26.4158 193.524 25.3478 192.036 23.6798 192.036C21.9998 192.036 20.9318 193.512 20.9318 196.572C20.9318 199.632 21.9998 201.156 23.6798 201.156ZM23.6798 200.28C22.6718 200.28 21.9998 199.164 21.9998 196.572C21.9998 194.004 22.6718 192.912 23.6798 192.912C24.6758 192.912 25.3478 194.004 25.3478 196.572C25.3478 199.164 24.6758 200.28 23.6798 200.28Z" fill="#9BA5AB"/>
<path d="M1.431 231H6.255V230.088H4.491V222.192H3.651C3.171 222.48 2.607 222.684 1.827 222.828V223.524H3.387V230.088H1.431V231ZM7.55925 231H13.0912V230.052H10.6553C10.2113 230.052 9.67125 230.1 9.21525 230.136C11.2793 228.18 12.6593 226.392 12.6593 224.64C12.6593 223.068 11.6753 222.036 10.1033 222.036C8.98725 222.036 8.23125 222.552 7.51125 223.332L8.14725 223.956C8.62725 223.38 9.25125 222.936 9.97125 222.936C11.0633 222.936 11.5913 223.668 11.5913 224.676C11.5913 226.188 10.3193 227.94 7.55925 230.352V231ZM17.0235 231.156C18.6915 231.156 19.7595 229.632 19.7595 226.572C19.7595 223.524 18.6915 222.036 17.0235 222.036C15.3435 222.036 14.2755 223.512 14.2755 226.572C14.2755 229.632 15.3435 231.156 17.0235 231.156ZM17.0235 230.28C16.0155 230.28 15.3435 229.164 15.3435 226.572C15.3435 224.004 16.0155 222.912 17.0235 222.912C18.0195 222.912 18.6915 224.004 18.6915 226.572C18.6915 229.164 18.0195 230.28 17.0235 230.28ZM23.6798 231.156C25.3478 231.156 26.4158 229.632 26.4158 226.572C26.4158 223.524 25.3478 222.036 23.6798 222.036C21.9998 222.036 20.9318 223.512 20.9318 226.572C20.9318 229.632 21.9998 231.156 23.6798 231.156ZM23.6798 230.28C22.6718 230.28 21.9998 229.164 21.9998 226.572C21.9998 224.004 22.6718 222.912 23.6798 222.912C24.6758 222.912 25.3478 224.004 25.3478 226.572C25.3478 229.164 24.6758 230.28 23.6798 230.28Z" fill="#9BA5AB"/>
<path d="M1.431 261H6.255V260.088H4.491V252.192H3.651C3.171 252.48 2.607 252.684 1.827 252.828V253.524H3.387V260.088H1.431V261ZM10.3673 261.156C12.0353 261.156 13.1033 259.632 13.1033 256.572C13.1033 253.524 12.0353 252.036 10.3673 252.036C8.68725 252.036 7.61925 253.512 7.61925 256.572C7.61925 259.632 8.68725 261.156 10.3673 261.156ZM10.3673 260.28C9.35925 260.28 8.68725 259.164 8.68725 256.572C8.68725 254.004 9.35925 252.912 10.3673 252.912C11.3633 252.912 12.0353 254.004 12.0353 256.572C12.0353 259.164 11.3633 260.28 10.3673 260.28ZM17.0235 261.156C18.6915 261.156 19.7595 259.632 19.7595 256.572C19.7595 253.524 18.6915 252.036 17.0235 252.036C15.3435 252.036 14.2755 253.512 14.2755 256.572C14.2755 259.632 15.3435 261.156 17.0235 261.156ZM17.0235 260.28C16.0155 260.28 15.3435 259.164 15.3435 256.572C15.3435 254.004 16.0155 252.912 17.0235 252.912C18.0195 252.912 18.6915 254.004 18.6915 256.572C18.6915 259.164 18.0195 260.28 17.0235 260.28ZM23.6798 261.156C25.3478 261.156 26.4158 259.632 26.4158 256.572C26.4158 253.524 25.3478 252.036 23.6798 252.036C21.9998 252.036 20.9318 253.512 20.9318 256.572C20.9318 259.632 21.9998 261.156 23.6798 261.156ZM23.6798 260.28C22.6718 260.28 21.9998 259.164 21.9998 256.572C21.9998 254.004 22.6718 252.912 23.6798 252.912C24.6758 252.912 25.3478 254.004 25.3478 256.572C25.3478 259.164 24.6758 260.28 23.6798 260.28Z" fill="#9BA5AB"/>
<path d="M10.3793 291.156C12.0353 291.156 13.1393 290.16 13.1393 288.876C13.1393 287.676 12.4193 287.016 11.6513 286.572V286.512C12.1793 286.104 12.8273 285.312 12.8273 284.388C12.8273 283.032 11.9153 282.072 10.4153 282.072C9.04725 282.072 8.00325 282.96 8.00325 284.304C8.00325 285.228 8.54325 285.888 9.19125 286.332V286.392C8.38725 286.824 7.57125 287.64 7.57125 288.816C7.57125 290.172 8.75925 291.156 10.3793 291.156ZM10.9793 286.224C9.94725 285.816 8.99925 285.36 8.99925 284.304C8.99925 283.452 9.58725 282.876 10.4033 282.876C11.3513 282.876 11.8913 283.584 11.8913 284.448C11.8913 285.096 11.5793 285.696 10.9793 286.224ZM10.4033 290.34C9.34725 290.34 8.56725 289.656 8.56725 288.72C8.56725 287.88 9.05925 287.184 9.76725 286.728C11.0153 287.232 12.0953 287.676 12.0953 288.852C12.0953 289.728 11.4113 290.34 10.4033 290.34ZM17.0235 291.156C18.6915 291.156 19.7595 289.632 19.7595 286.572C19.7595 283.524 18.6915 282.036 17.0235 282.036C15.3435 282.036 14.2755 283.512 14.2755 286.572C14.2755 289.632 15.3435 291.156 17.0235 291.156ZM17.0235 290.28C16.0155 290.28 15.3435 289.164 15.3435 286.572C15.3435 284.004 16.0155 282.912 17.0235 282.912C18.0195 282.912 18.6915 284.004 18.6915 286.572C18.6915 289.164 18.0195 290.28 17.0235 290.28ZM23.6798 291.156C25.3478 291.156 26.4158 289.632 26.4158 286.572C26.4158 283.524 25.3478 282.036 23.6798 282.036C21.9998 282.036 20.9318 283.512 20.9318 286.572C20.9318 289.632 21.9998 291.156 23.6798 291.156ZM23.6798 290.28C22.6718 290.28 21.9998 289.164 21.9998 286.572C21.9998 284.004 22.6718 282.912 23.6798 282.912C24.6758 282.912 25.3478 284.004 25.3478 286.572C25.3478 289.164 24.6758 290.28 23.6798 290.28Z" fill="#9BA5AB"/>
<path d="M10.5473 316.356C11.6153 316.356 12.1433 317.112 12.1433 318.3C12.1433 319.5 11.4833 320.304 10.6433 320.304C9.53925 320.304 8.87925 319.308 8.74725 317.484C9.28725 316.68 9.99525 316.356 10.5473 316.356ZM10.6433 321.156C12.0113 321.156 13.1633 320.004 13.1633 318.3C13.1633 316.464 12.2153 315.54 10.7273 315.54C10.0312 315.54 9.26325 315.948 8.72325 316.608C8.77125 313.872 9.79125 312.948 10.9913 312.948C11.5313 312.948 12.0593 313.2 12.4073 313.62L13.0073 312.936C12.5273 312.42 11.8673 312.036 10.9553 312.036C9.25125 312.036 7.70325 313.356 7.70325 316.8C7.70325 319.704 8.95125 321.156 10.6433 321.156ZM17.0235 321.156C18.6915 321.156 19.7595 319.632 19.7595 316.572C19.7595 313.524 18.6915 312.036 17.0235 312.036C15.3435 312.036 14.2755 313.512 14.2755 316.572C14.2755 319.632 15.3435 321.156 17.0235 321.156ZM17.0235 320.28C16.0155 320.28 15.3435 319.164 15.3435 316.572C15.3435 314.004 16.0155 312.912 17.0235 312.912C18.0195 312.912 18.6915 314.004 18.6915 316.572C18.6915 319.164 18.0195 320.28 17.0235 320.28ZM23.6798 321.156C25.3478 321.156 26.4158 319.632 26.4158 316.572C26.4158 313.524 25.3478 312.036 23.6798 312.036C21.9998 312.036 20.9318 313.512 20.9318 316.572C20.9318 319.632 21.9998 321.156 23.6798 321.156ZM23.6798 320.28C22.6718 320.28 21.9998 319.164 21.9998 316.572C21.9998 314.004 22.6718 312.912 23.6798 312.912C24.6758 312.912 25.3478 314.004 25.3478 316.572C25.3478 319.164 24.6758 320.28 23.6798 320.28Z" fill="#9BA5AB"/>
<path d="M8.41125 347.7L10.4153 344.7C10.6673 344.268 10.9073 343.836 11.1233 343.404H11.1713C11.1473 343.86 11.1113 344.568 11.1113 345V347.7H8.41125ZM11.1113 351H12.1433V348.576H13.3073V347.7H12.1433V342.192H10.9313L7.27125 347.856V348.576H11.1113V351ZM17.0235 351.156C18.6915 351.156 19.7595 349.632 19.7595 346.572C19.7595 343.524 18.6915 342.036 17.0235 342.036C15.3435 342.036 14.2755 343.512 14.2755 346.572C14.2755 349.632 15.3435 351.156 17.0235 351.156ZM17.0235 350.28C16.0155 350.28 15.3435 349.164 15.3435 346.572C15.3435 344.004 16.0155 342.912 17.0235 342.912C18.0195 342.912 18.6915 344.004 18.6915 346.572C18.6915 349.164 18.0195 350.28 17.0235 350.28ZM23.6798 351.156C25.3478 351.156 26.4158 349.632 26.4158 346.572C26.4158 343.524 25.3478 342.036 23.6798 342.036C21.9998 342.036 20.9318 343.512 20.9318 346.572C20.9318 349.632 21.9998 351.156 23.6798 351.156ZM23.6798 350.28C22.6718 350.28 21.9998 349.164 21.9998 346.572C21.9998 344.004 22.6718 342.912 23.6798 342.912C24.6758 342.912 25.3478 344.004 25.3478 346.572C25.3478 349.164 24.6758 350.28 23.6798 350.28Z" fill="#9BA5AB"/>
<path d="M7.55925 381H13.0912V380.052H10.6553C10.2113 380.052 9.67125 380.1 9.21525 380.136C11.2793 378.18 12.6593 376.392 12.6593 374.64C12.6593 373.068 11.6753 372.036 10.1033 372.036C8.98725 372.036 8.23125 372.552 7.51125 373.332L8.14725 373.956C8.62725 373.38 9.25125 372.936 9.97125 372.936C11.0633 372.936 11.5913 373.668 11.5913 374.676C11.5913 376.188 10.3193 377.94 7.55925 380.352V381ZM17.0235 381.156C18.6915 381.156 19.7595 379.632 19.7595 376.572C19.7595 373.524 18.6915 372.036 17.0235 372.036C15.3435 372.036 14.2755 373.512 14.2755 376.572C14.2755 379.632 15.3435 381.156 17.0235 381.156ZM17.0235 380.28C16.0155 380.28 15.3435 379.164 15.3435 376.572C15.3435 374.004 16.0155 372.912 17.0235 372.912C18.0195 372.912 18.6915 374.004 18.6915 376.572C18.6915 379.164 18.0195 380.28 17.0235 380.28ZM23.6798 381.156C25.3478 381.156 26.4158 379.632 26.4158 376.572C26.4158 373.524 25.3478 372.036 23.6798 372.036C21.9998 372.036 20.9318 373.512 20.9318 376.572C20.9318 379.632 21.9998 381.156 23.6798 381.156ZM23.6798 380.28C22.6718 380.28 21.9998 379.164 21.9998 376.572C21.9998 374.004 22.6718 372.912 23.6798 372.912C24.6758 372.912 25.3478 374.004 25.3478 376.572C25.3478 379.164 24.6758 380.28 23.6798 380.28Z" fill="#9BA5AB"/>
<path d="M23.6798 411.156C25.3478 411.156 26.4158 409.632 26.4158 406.572C26.4158 403.524 25.3478 402.036 23.6798 402.036C21.9998 402.036 20.9318 403.512 20.9318 406.572C20.9318 409.632 21.9998 411.156 23.6798 411.156ZM23.6798 410.28C22.6718 410.28 21.9998 409.164 21.9998 406.572C21.9998 404.004 22.6718 402.912 23.6798 402.912C24.6758 402.912 25.3478 404.004 25.3478 406.572C25.3478 409.164 24.6758 410.28 23.6798 410.28Z" fill="#9BA5AB"/>
<path d="M75.543 432.982C76.215 432.982 76.915 432.562 77.489 431.596L76.775 431.078C76.425 431.75 76.033 432.03 75.571 432.03C74.689 432.03 74.031 430.7 72.799 430.7C72.127 430.7 71.413 431.12 70.853 432.114L71.567 432.618C71.931 431.946 72.323 431.666 72.771 431.666C73.653 431.666 74.325 432.982 75.543 432.982ZM78.6746 437H85.1146V435.908H82.2726C81.7546 435.908 81.1386 435.95 80.5926 436.006C83.0146 433.724 84.6246 431.638 84.6246 429.58C84.6246 427.746 83.4766 426.556 81.6426 426.556C80.3406 426.556 79.4446 427.158 78.6046 428.068L79.3466 428.782C79.9206 428.11 80.6486 427.592 81.4886 427.592C82.7626 427.592 83.3646 428.46 83.3646 429.636C83.3646 431.386 81.8946 433.444 78.6746 436.258V437ZM89.7162 437.196C91.6482 437.196 92.8942 435.418 92.8942 431.834C92.8942 428.278 91.6482 426.556 89.7162 426.556C87.7562 426.556 86.5102 428.278 86.5102 431.834C86.5102 435.418 87.7562 437.196 89.7162 437.196ZM89.7162 436.16C88.5402 436.16 87.7422 434.858 87.7422 431.834C87.7422 428.852 88.5402 427.578 89.7162 427.578C90.8782 427.578 91.6622 428.852 91.6622 431.834C91.6622 434.858 90.8782 436.16 89.7162 436.16ZM94.8218 437H100.45V435.936H98.3778V426.738H97.3978C96.8518 427.074 96.1938 427.312 95.2698 427.466V428.292H97.1038V435.936H94.8218V437ZM105.009 437.196C106.731 437.196 108.369 435.908 108.369 433.668C108.369 431.4 106.983 430.392 105.275 430.392C104.659 430.392 104.197 430.546 103.735 430.798L104.001 427.83H107.879V426.738H102.881L102.559 431.54L103.245 431.974C103.833 431.582 104.267 431.358 104.953 431.358C106.227 431.358 107.067 432.24 107.067 433.71C107.067 435.194 106.101 436.132 104.883 436.132C103.707 436.132 102.951 435.586 102.377 434.984L101.733 435.824C102.433 436.524 103.413 437.196 105.009 437.196ZM119.061 425.436V434.816H120.223V425.436H119.061ZM115.491 427.088V428.026H119.495V427.088H115.491ZM112.131 436.86V437.812H120.559V436.86H112.131ZM112.131 434.004V437.294H113.293V434.004H112.131ZM110.549 426.36V432.324H111.711V426.36H110.549ZM110.549 431.96V432.926H111.501C113.363 432.926 115.057 432.842 117.087 432.478L116.975 431.512C115.001 431.862 113.307 431.96 111.501 431.96H110.549ZM115.491 429.496V430.448H119.495V429.496H115.491Z" fill="#383E41"/>
<path d="M150.246 437H156.7V435.894H153.858C153.34 435.894 152.71 435.95 152.178 435.992C154.586 433.71 156.196 431.624 156.196 429.58C156.196 427.746 155.048 426.542 153.214 426.542C151.912 426.542 151.03 427.144 150.19 428.054L150.932 428.782C151.492 428.11 152.22 427.592 153.06 427.592C154.334 427.592 154.95 428.446 154.95 429.622C154.95 431.386 153.466 433.43 150.246 436.244V437ZM161.288 437.182C163.234 437.182 164.48 435.404 164.48 431.834C164.48 428.278 163.234 426.542 161.288 426.542C159.328 426.542 158.082 428.264 158.082 431.834C158.082 435.404 159.328 437.182 161.288 437.182ZM161.288 436.16C160.112 436.16 159.328 434.858 159.328 431.834C159.328 428.838 160.112 427.564 161.288 427.564C162.45 427.564 163.234 428.838 163.234 431.834C163.234 434.858 162.45 436.16 161.288 436.16ZM166.393 437H172.021V435.936H169.963V426.724H168.983C168.423 427.06 167.765 427.298 166.855 427.466V428.278H168.675V435.936H166.393V437ZM177.029 431.582C178.275 431.582 178.891 432.464 178.891 433.85C178.891 435.25 178.121 436.188 177.141 436.188C175.853 436.188 175.083 435.026 174.929 432.898C175.559 431.96 176.385 431.582 177.029 431.582ZM177.141 437.182C178.737 437.182 180.081 435.838 180.081 433.85C180.081 431.708 178.975 430.63 177.239 430.63C176.427 430.63 175.531 431.106 174.901 431.876C174.957 428.684 176.147 427.606 177.547 427.606C178.177 427.606 178.793 427.9 179.199 428.39L179.899 427.592C179.339 426.99 178.569 426.542 177.505 426.542C175.517 426.542 173.711 428.082 173.711 432.1C173.711 435.488 175.167 437.182 177.141 437.182ZM190.618 434.788H191.78V425.492H190.618V427.116H187.076V428.04H190.618V429.524H187.076V430.434H190.618V434.788ZM188.546 431.512C186.67 431.848 185.032 431.946 183.31 431.96V426.388H182.162V432.926H183.114C184.962 432.926 186.656 432.828 188.672 432.464L188.546 431.512ZM184.878 436.818V433.99H183.73V437.756H192.102V436.818H184.878Z" fill="#383E41"/>
<path d="M221.817 437H228.271V435.894H225.429C224.911 435.894 224.281 435.95 223.749 435.992C226.157 433.71 227.767 431.624 227.767 429.58C227.767 427.746 226.619 426.542 224.785 426.542C223.483 426.542 222.601 427.144 221.761 428.054L222.503 428.782C223.063 428.11 223.791 427.592 224.631 427.592C225.905 427.592 226.521 428.446 226.521 429.622C226.521 431.386 225.037 433.43 221.817 436.244V437ZM232.859 437.182C234.805 437.182 236.051 435.404 236.051 431.834C236.051 428.278 234.805 426.542 232.859 426.542C230.899 426.542 229.653 428.264 229.653 431.834C229.653 435.404 230.899 437.182 232.859 437.182ZM232.859 436.16C231.683 436.16 230.899 434.858 230.899 431.834C230.899 428.838 231.683 427.564 232.859 427.564C234.021 427.564 234.805 428.838 234.805 431.834C234.805 434.858 234.021 436.16 232.859 436.16ZM237.964 437H243.592V435.936H241.534V426.724H240.554C239.994 427.06 239.336 427.298 238.426 427.466V428.278H240.246V435.936H237.964V437ZM247.27 437H248.6C248.754 432.982 249.202 430.588 251.61 427.508V426.724H245.184V427.83H250.154C248.152 430.63 247.438 433.108 247.27 437ZM262.19 434.788H263.352V425.492H262.19V427.116H258.648V428.04H262.19V429.524H258.648V430.434H262.19V434.788ZM260.118 431.512C258.242 431.848 256.604 431.946 254.882 431.96V426.388H253.734V432.926H254.686C256.534 432.926 258.228 432.828 260.244 432.464L260.118 431.512ZM256.45 436.818V433.99H255.302V437.756H263.674V436.818H256.45Z" fill="#383E41"/>
<path d="M293.388 437H299.842V435.894H297C296.482 435.894 295.852 435.95 295.32 435.992C297.728 433.71 299.338 431.624 299.338 429.58C299.338 427.746 298.19 426.542 296.356 426.542C295.054 426.542 294.172 427.144 293.332 428.054L294.074 428.782C294.634 428.11 295.362 427.592 296.202 427.592C297.476 427.592 298.092 428.446 298.092 429.622C298.092 431.386 296.608 433.43 293.388 436.244V437ZM304.43 437.182C306.376 437.182 307.622 435.404 307.622 431.834C307.622 428.278 306.376 426.542 304.43 426.542C302.47 426.542 301.224 428.264 301.224 431.834C301.224 435.404 302.47 437.182 304.43 437.182ZM304.43 436.16C303.254 436.16 302.47 434.858 302.47 431.834C302.47 428.838 303.254 427.564 304.43 427.564C305.592 427.564 306.376 428.838 306.376 431.834C306.376 434.858 305.592 436.16 304.43 436.16ZM309.536 437H315.164V435.936H313.106V426.724H312.126C311.566 427.06 310.908 427.298 309.998 427.466V428.278H311.818V435.936H309.536V437ZM319.975 437.182C321.907 437.182 323.195 436.02 323.195 434.522C323.195 433.122 322.355 432.352 321.459 431.834V431.764C322.075 431.288 322.831 430.364 322.831 429.286C322.831 427.704 321.767 426.584 320.017 426.584C318.421 426.584 317.203 427.62 317.203 429.188C317.203 430.266 317.833 431.036 318.589 431.554V431.624C317.651 432.128 316.699 433.08 316.699 434.452C316.699 436.034 318.085 437.182 319.975 437.182ZM320.675 431.428C319.471 430.952 318.365 430.42 318.365 429.188C318.365 428.194 319.051 427.522 320.003 427.522C321.109 427.522 321.739 428.348 321.739 429.356C321.739 430.112 321.375 430.812 320.675 431.428ZM320.003 436.23C318.771 436.23 317.861 435.432 317.861 434.34C317.861 433.36 318.435 432.548 319.261 432.016C320.717 432.604 321.977 433.122 321.977 434.494C321.977 435.516 321.179 436.23 320.003 436.23ZM333.761 434.788H334.923V425.492H333.761V427.116H330.219V428.04H333.761V429.524H330.219V430.434H333.761V434.788ZM331.689 431.512C329.813 431.848 328.175 431.946 326.453 431.96V426.388H325.305V432.926H326.257C328.105 432.926 329.799 432.828 331.815 432.464L331.689 431.512ZM328.021 436.818V433.99H326.873V437.756H335.245V436.818H328.021Z" fill="#383E41"/>
<path d="M364.961 437H371.415V435.894H368.573C368.055 435.894 367.425 435.95 366.893 435.992C369.301 433.71 370.911 431.624 370.911 429.58C370.911 427.746 369.763 426.542 367.929 426.542C366.627 426.542 365.745 427.144 364.905 428.054L365.647 428.782C366.207 428.11 366.935 427.592 367.775 427.592C369.049 427.592 369.665 428.446 369.665 429.622C369.665 431.386 368.181 433.43 364.961 436.244V437ZM376.002 437.182C377.948 437.182 379.194 435.404 379.194 431.834C379.194 428.278 377.948 426.542 376.002 426.542C374.042 426.542 372.796 428.264 372.796 431.834C372.796 435.404 374.042 437.182 376.002 437.182ZM376.002 436.16C374.826 436.16 374.042 434.858 374.042 431.834C374.042 428.838 374.826 427.564 376.002 427.564C377.164 427.564 377.948 428.838 377.948 431.834C377.948 434.858 377.164 436.16 376.002 436.16ZM381.108 437H386.736V435.936H384.678V426.724H383.698C383.138 427.06 382.48 427.298 381.57 427.466V428.278H383.39V435.936H381.108V437ZM389.462 429.874C389.462 428.474 390.218 427.55 391.198 427.55C392.514 427.55 393.298 428.67 393.438 430.784C392.78 431.75 391.996 432.156 391.296 432.156C390.078 432.156 389.462 431.26 389.462 429.874ZM390.918 437.182C392.85 437.182 394.642 435.586 394.642 431.428C394.642 428.166 393.172 426.542 391.198 426.542C389.602 426.542 388.258 427.886 388.258 429.874C388.258 432.002 389.378 433.108 391.086 433.108C391.94 433.108 392.822 432.618 393.452 431.848C393.354 435.026 392.206 436.118 390.876 436.118C390.218 436.118 389.588 435.824 389.168 435.334L388.454 436.132C389.028 436.734 389.812 437.182 390.918 437.182ZM405.333 434.788H406.495V425.492H405.333V427.116H401.791V428.04H405.333V429.524H401.791V430.434H405.333V434.788ZM403.261 431.512C401.385 431.848 399.747 431.946 398.025 431.96V426.388H396.877V432.926H397.829C399.677 432.926 401.371 432.828 403.387 432.464L403.261 431.512ZM399.593 436.818V433.99H398.445V437.756H406.817V436.818H399.593Z" fill="#383E41"/>
<path d="M436.532 437H442.986V435.894H440.144C439.626 435.894 438.996 435.95 438.464 435.992C440.872 433.71 442.482 431.624 442.482 429.58C442.482 427.746 441.334 426.542 439.5 426.542C438.198 426.542 437.316 427.144 436.476 428.054L437.218 428.782C437.778 428.11 438.506 427.592 439.346 427.592C440.62 427.592 441.236 428.446 441.236 429.622C441.236 431.386 439.752 433.43 436.532 436.244V437ZM447.574 437.182C449.52 437.182 450.766 435.404 450.766 431.834C450.766 428.278 449.52 426.542 447.574 426.542C445.614 426.542 444.368 428.264 444.368 431.834C444.368 435.404 445.614 437.182 447.574 437.182ZM447.574 436.16C446.398 436.16 445.614 434.858 445.614 431.834C445.614 428.838 446.398 427.564 447.574 427.564C448.736 427.564 449.52 428.838 449.52 431.834C449.52 434.858 448.736 436.16 447.574 436.16ZM452.063 437H458.517V435.894H455.675C455.157 435.894 454.527 435.95 453.995 435.992C456.403 433.71 458.013 431.624 458.013 429.58C458.013 427.746 456.865 426.542 455.031 426.542C453.729 426.542 452.847 427.144 452.007 428.054L452.749 428.782C453.309 428.11 454.037 427.592 454.877 427.592C456.151 427.592 456.767 428.446 456.767 429.622C456.767 431.386 455.283 433.43 452.063 436.244V437ZM463.105 437.182C465.051 437.182 466.297 435.404 466.297 431.834C466.297 428.278 465.051 426.542 463.105 426.542C461.145 426.542 459.899 428.264 459.899 431.834C459.899 435.404 461.145 437.182 463.105 437.182ZM463.105 436.16C461.929 436.16 461.145 434.858 461.145 431.834C461.145 428.838 461.929 427.564 463.105 427.564C464.267 427.564 465.051 428.838 465.051 431.834C465.051 434.858 464.267 436.16 463.105 436.16ZM476.905 434.788H478.067V425.492H476.905V427.116H473.363V428.04H476.905V429.524H473.363V430.434H476.905V434.788ZM474.833 431.512C472.957 431.848 471.319 431.946 469.597 431.96V426.388H468.449V432.926H469.401C471.249 432.926 472.943 432.828 474.959 432.464L474.833 431.512ZM471.165 436.818V433.99H470.017V437.756H478.389V436.818H471.165Z" fill="#383E41"/>
<path d="M508.103 437H514.557V435.894H511.715C511.197 435.894 510.567 435.95 510.035 435.992C512.443 433.71 514.053 431.624 514.053 429.58C514.053 427.746 512.905 426.542 511.071 426.542C509.769 426.542 508.887 427.144 508.047 428.054L508.789 428.782C509.349 428.11 510.077 427.592 510.917 427.592C512.191 427.592 512.807 428.446 512.807 429.622C512.807 431.386 511.323 433.43 508.103 436.244V437ZM519.145 437.182C521.091 437.182 522.337 435.404 522.337 431.834C522.337 428.278 521.091 426.542 519.145 426.542C517.185 426.542 515.939 428.264 515.939 431.834C515.939 435.404 517.185 437.182 519.145 437.182ZM519.145 436.16C517.969 436.16 517.185 434.858 517.185 431.834C517.185 428.838 517.969 427.564 519.145 427.564C520.307 427.564 521.091 428.838 521.091 431.834C521.091 434.858 520.307 436.16 519.145 436.16ZM523.635 437H530.089V435.894H527.247C526.729 435.894 526.099 435.95 525.567 435.992C527.975 433.71 529.585 431.624 529.585 429.58C529.585 427.746 528.437 426.542 526.603 426.542C525.301 426.542 524.419 427.144 523.579 428.054L524.321 428.782C524.881 428.11 525.609 427.592 526.449 427.592C527.723 427.592 528.339 428.446 528.339 429.622C528.339 431.386 526.855 433.43 523.635 436.244V437ZM532.016 437H537.644V435.936H535.586V426.724H534.606C534.046 427.06 533.388 427.298 532.478 427.466V428.278H534.298V435.936H532.016V437ZM548.476 434.788H549.638V425.492H548.476V427.116H544.934V428.04H548.476V429.524H544.934V430.434H548.476V434.788ZM546.404 431.512C544.528 431.848 542.89 431.946 541.168 431.96V426.388H540.02V432.926H540.972C542.82 432.926 544.514 432.828 546.53 432.464L546.404 431.512ZM542.736 436.818V433.99H541.588V437.756H549.96V436.818H542.736Z" fill="#383E41"/>
<path d="M579.675 437H586.115V435.908H583.273C582.755 435.908 582.139 435.95 581.593 436.006C584.015 433.724 585.625 431.638 585.625 429.58C585.625 427.746 584.477 426.556 582.643 426.556C581.341 426.556 580.445 427.158 579.605 428.068L580.347 428.782C580.921 428.11 581.649 427.592 582.489 427.592C583.763 427.592 584.365 428.46 584.365 429.636C584.365 431.386 582.895 433.444 579.675 436.258V437ZM590.716 437.196C592.648 437.196 593.894 435.418 593.894 431.834C593.894 428.278 592.648 426.556 590.716 426.556C588.756 426.556 587.51 428.278 587.51 431.834C587.51 435.418 588.756 437.196 590.716 437.196ZM590.716 436.16C589.54 436.16 588.742 434.858 588.742 431.834C588.742 428.852 589.54 427.578 590.716 427.578C591.878 427.578 592.662 428.852 592.662 431.834C592.662 434.858 591.878 436.16 590.716 436.16ZM595.206 437H601.646V435.908H598.804C598.286 435.908 597.67 435.95 597.124 436.006C599.546 433.724 601.156 431.638 601.156 429.58C601.156 427.746 600.008 426.556 598.174 426.556C596.872 426.556 595.976 427.158 595.136 428.068L595.878 428.782C596.452 428.11 597.18 427.592 598.02 427.592C599.294 427.592 599.896 428.46 599.896 429.636C599.896 431.386 598.426 433.444 595.206 436.258V437ZM602.971 437H609.411V435.908H606.569C606.051 435.908 605.435 435.95 604.889 436.006C607.311 433.724 608.921 431.638 608.921 429.58C608.921 427.746 607.773 426.556 605.939 426.556C604.637 426.556 603.741 427.158 602.901 428.068L603.643 428.782C604.217 428.11 604.945 427.592 605.785 427.592C607.059 427.592 607.661 428.46 607.661 429.636C607.661 431.386 606.191 433.444 602.971 436.258V437ZM620.061 425.436V434.816H621.223V425.436H620.061ZM616.491 427.088V428.026H620.495V427.088H616.491ZM613.131 436.86V437.812H621.559V436.86H613.131ZM613.131 434.004V437.294H614.293V434.004H613.131ZM611.549 426.36V432.324H612.711V426.36H611.549ZM611.549 431.96V432.926H612.501C614.363 432.926 616.057 432.842 618.087 432.478L617.975 431.512C616.001 431.862 614.307 431.96 612.501 431.96H611.549ZM616.491 429.496V430.448H620.495V429.496H616.491Z" fill="#383E41"/>
<path d="M434.367 221H441.487V219.096H439.263V209.144H437.519C436.767 209.624 435.951 209.928 434.767 210.152V211.608H436.911V219.096H434.367V221ZM443.821 224.408C445.757 223.768 446.845 222.344 446.845 220.472C446.845 219.016 446.237 218.152 445.149 218.152C444.317 218.152 443.629 218.696 443.629 219.544C443.629 220.44 444.333 220.936 445.101 220.936C445.149 220.936 445.197 220.936 445.245 220.936C445.261 221.832 444.573 222.664 443.325 223.128L443.821 224.408ZM448.992 221H456.112V219.096H453.888V209.144H452.144C451.392 209.624 450.576 209.928 449.392 210.152V211.608H451.536V219.096H448.992V221ZM459.902 212.888C459.902 211.432 460.622 210.712 461.502 210.712C462.51 210.712 463.326 211.512 463.534 213.656C462.99 214.568 462.238 214.936 461.582 214.936C460.558 214.936 459.902 214.28 459.902 212.888ZM461.182 221.224C463.534 221.224 465.726 219.288 465.726 214.808C465.726 210.696 463.71 208.936 461.47 208.936C459.438 208.936 457.742 210.456 457.742 212.888C457.742 215.4 459.166 216.616 461.134 216.616C461.934 216.616 462.942 216.136 463.566 215.336C463.454 218.296 462.366 219.304 461.038 219.304C460.334 219.304 459.614 218.936 459.182 218.456L457.934 219.88C458.638 220.6 459.71 221.224 461.182 221.224ZM471.451 215.208C472.475 215.208 473.147 215.864 473.147 217.256C473.147 218.712 472.411 219.448 471.531 219.448C470.539 219.448 469.739 218.616 469.515 216.456C470.059 215.56 470.811 215.208 471.451 215.208ZM471.579 221.224C473.595 221.224 475.291 219.688 475.291 217.256C475.291 214.728 473.883 213.544 471.899 213.544C471.131 213.544 470.107 214.024 469.467 214.824C469.563 211.848 470.683 210.824 472.043 210.824C472.731 210.824 473.451 211.208 473.867 211.688L475.115 210.28C474.395 209.544 473.355 208.936 471.899 208.936C469.515 208.936 467.323 210.824 467.323 215.24C467.323 219.416 469.323 221.224 471.579 221.224Z" fill="#217FEF"/>
<path d="M362.367 229H369.487V227.096H367.263V217.144H365.519C364.767 217.624 363.951 217.928 362.767 218.152V219.608H364.911V227.096H362.367V229ZM371.821 232.408C373.757 231.768 374.845 230.344 374.845 228.472C374.845 227.016 374.237 226.152 373.149 226.152C372.317 226.152 371.629 226.696 371.629 227.544C371.629 228.44 372.333 228.936 373.101 228.936C373.149 228.936 373.197 228.936 373.245 228.936C373.261 229.832 372.573 230.664 371.325 231.128L371.821 232.408ZM376.992 229H384.112V227.096H381.888V217.144H380.144C379.392 217.624 378.576 217.928 377.392 218.152V219.608H379.536V227.096H376.992V229ZM389.486 229.224C391.742 229.224 393.646 227.96 393.646 225.784C393.646 224.232 392.622 223.24 391.294 222.872V222.792C392.542 222.296 393.262 221.368 393.262 220.088C393.262 218.072 391.71 216.936 389.422 216.936C388.03 216.936 386.894 217.496 385.87 218.392L387.07 219.832C387.774 219.176 388.462 218.792 389.31 218.792C390.318 218.792 390.894 219.336 390.894 220.264C390.894 221.32 390.19 222.072 388.014 222.072V223.752C390.59 223.752 391.278 224.488 391.278 225.64C391.278 226.712 390.462 227.304 389.262 227.304C388.19 227.304 387.326 226.776 386.622 226.088L385.518 227.576C386.35 228.52 387.614 229.224 389.486 229.224ZM395.211 229H403.147V227.016H400.587C400.027 227.016 399.243 227.08 398.651 227.144C400.811 225.032 402.587 222.728 402.587 220.584C402.587 218.376 401.099 216.936 398.859 216.936C397.243 216.936 396.187 217.56 395.099 218.728L396.379 220.008C396.987 219.352 397.691 218.792 398.555 218.792C399.691 218.792 400.331 219.512 400.331 220.712C400.331 222.536 398.427 224.76 395.211 227.64V229Z" fill="#217FEF"/>
<path d="M507.367 201H514.487V199.096H512.263V189.144H510.519C509.767 189.624 508.951 189.928 507.767 190.152V191.608H509.911V199.096H507.367V201ZM516.821 204.408C518.757 203.768 519.845 202.344 519.845 200.472C519.845 199.016 519.237 198.152 518.149 198.152C517.317 198.152 516.629 198.696 516.629 199.544C516.629 200.44 517.333 200.936 518.101 200.936C518.149 200.936 518.197 200.936 518.245 200.936C518.261 201.832 517.573 202.664 516.325 203.128L516.821 204.408ZM525.064 201.224C527.32 201.224 529.224 199.96 529.224 197.784C529.224 196.232 528.2 195.24 526.872 194.872V194.792C528.12 194.296 528.84 193.368 528.84 192.088C528.84 190.072 527.288 188.936 525 188.936C523.608 188.936 522.472 189.496 521.448 190.392L522.648 191.832C523.352 191.176 524.04 190.792 524.888 190.792C525.896 190.792 526.472 191.336 526.472 192.264C526.472 193.32 525.768 194.072 523.592 194.072V195.752C526.168 195.752 526.856 196.488 526.856 197.64C526.856 198.712 526.04 199.304 524.84 199.304C523.768 199.304 522.904 198.776 522.2 198.088L521.096 199.576C521.928 200.52 523.192 201.224 525.064 201.224ZM532.726 196.136L534.566 193.192C534.902 192.552 535.222 191.896 535.51 191.256H535.574C535.542 191.96 535.494 193.032 535.494 193.72V196.136H532.726ZM535.494 201H537.686V197.928H539.078V196.136H537.686V189.144H534.854L530.438 196.328V197.928H535.494V201ZM542.147 196.136L543.987 193.192C544.323 192.552 544.643 191.896 544.931 191.256H544.995C544.963 191.96 544.915 193.032 544.915 193.72V196.136H542.147ZM544.915 201H547.107V197.928H548.499V196.136H547.107V189.144H544.275L539.859 196.328V197.928H544.915V201Z" fill="#217FEF"/>
<path d="M581.319 241H588.455V239.096H586.231V229.16H584.487C583.719 229.624 582.919 229.928 581.719 230.152V231.608H583.879V239.096H581.319V241ZM590.789 244.424C592.741 243.784 593.813 242.36 593.813 240.472C593.813 239.032 593.205 238.168 592.133 238.168C591.285 238.168 590.597 238.712 590.597 239.56C590.597 240.44 591.301 240.952 592.069 240.952C592.421 240.952 592.741 240.84 592.981 240.6L592.149 239.224L592.229 240.888C592.245 241.832 591.557 242.68 590.309 243.144L590.789 244.424ZM599.384 241.224C601.784 241.224 603.384 239.128 603.384 235.032C603.384 230.952 601.784 228.952 599.384 228.952C596.968 228.952 595.368 230.952 595.368 235.032C595.368 239.128 596.968 241.224 599.384 241.224ZM599.384 239.384C598.36 239.384 597.592 238.36 597.592 235.032C597.592 231.72 598.36 230.76 599.384 230.76C600.408 230.76 601.16 231.72 601.16 235.032C601.16 238.36 600.408 239.384 599.384 239.384ZM604.774 241H612.71V239.016H610.15C609.59 239.016 608.806 239.096 608.214 239.16C610.374 237.048 612.166 234.744 612.166 232.584C612.166 230.376 610.662 228.952 608.438 228.952C606.822 228.952 605.75 229.576 604.662 230.744L605.958 232.024C606.566 231.352 607.254 230.792 608.134 230.792C609.27 230.792 609.894 231.528 609.894 232.712C609.894 234.536 608.006 236.76 604.774 239.656V241ZM618.579 241.224C620.595 241.224 622.307 239.704 622.307 237.272C622.307 234.728 620.883 233.56 618.899 233.56C618.099 233.56 616.995 234.072 616.371 234.952L616.467 236.552C617.059 235.576 617.811 235.224 618.467 235.224C619.475 235.224 620.147 235.864 620.147 237.272C620.147 238.712 619.427 239.448 618.547 239.448C617.379 239.448 616.483 238.312 616.483 235.24C616.483 231.944 617.619 230.84 619.059 230.84C619.731 230.84 620.467 231.224 620.867 231.688L622.131 230.296C621.411 229.544 620.355 228.952 618.915 228.952C616.515 228.952 614.323 230.84 614.323 235.24C614.323 239.416 616.339 241.224 618.579 241.224Z" fill="#217FEF"/>
<path d="M156.295 289.208C157.319 289.208 157.991 289.864 157.991 291.256C157.991 292.712 157.255 293.448 156.375 293.448C155.383 293.448 154.583 292.616 154.359 290.456C154.903 289.56 155.655 289.208 156.295 289.208ZM156.423 295.224C158.439 295.224 160.135 293.688 160.135 291.256C160.135 288.728 158.727 287.544 156.743 287.544C155.975 287.544 154.951 288.024 154.311 288.824C154.407 285.848 155.527 284.824 156.887 284.824C157.575 284.824 158.295 285.208 158.711 285.688L159.959 284.28C159.239 283.544 158.199 282.936 156.743 282.936C154.359 282.936 152.167 284.824 152.167 289.24C152.167 293.416 154.167 295.224 156.423 295.224ZM163.589 286.888C163.589 285.432 164.309 284.712 165.189 284.712C166.197 284.712 167.013 285.512 167.221 287.656C166.677 288.568 165.925 288.936 165.269 288.936C164.245 288.936 163.589 288.28 163.589 286.888ZM164.869 295.224C167.221 295.224 169.413 293.288 169.413 288.808C169.413 284.696 167.397 282.936 165.157 282.936C163.125 282.936 161.429 284.456 161.429 286.888C161.429 289.4 162.853 290.616 164.821 290.616C165.621 290.616 166.629 290.136 167.253 289.336C167.141 292.296 166.053 293.304 164.725 293.304C164.021 293.304 163.301 292.936 162.869 292.456L161.621 293.88C162.325 294.6 163.397 295.224 164.869 295.224ZM175.139 289.208C176.163 289.208 176.835 289.864 176.835 291.256C176.835 292.712 176.099 293.448 175.219 293.448C174.227 293.448 173.427 292.616 173.203 290.456C173.747 289.56 174.499 289.208 175.139 289.208ZM175.267 295.224C177.283 295.224 178.979 293.688 178.979 291.256C178.979 288.728 177.571 287.544 175.587 287.544C174.819 287.544 173.795 288.024 173.155 288.824C173.251 285.848 174.371 284.824 175.731 284.824C176.419 284.824 177.139 285.208 177.555 285.688L178.803 284.28C178.083 283.544 177.043 282.936 175.587 282.936C173.203 282.936 171.011 284.824 171.011 289.24C171.011 293.416 173.011 295.224 175.267 295.224Z" fill="#217FEF"/>
<path d="M228.071 261.224C230.471 261.224 232.055 259.848 232.055 258.056C232.055 256.44 231.159 255.48 230.071 254.888V254.808C230.855 254.248 231.591 253.272 231.591 252.104C231.591 250.216 230.247 248.952 228.151 248.952C226.103 248.952 224.583 250.168 224.583 252.072C224.583 253.336 225.239 254.232 226.151 254.888V254.968C225.047 255.544 224.119 256.536 224.119 258.056C224.119 259.912 225.815 261.224 228.071 261.224ZM228.823 254.232C227.575 253.736 226.663 253.192 226.663 252.072C226.663 251.128 227.303 250.6 228.103 250.6C229.095 250.6 229.671 251.288 229.671 252.248C229.671 252.952 229.399 253.624 228.823 254.232ZM228.135 259.56C227.031 259.56 226.151 258.872 226.151 257.8C226.151 256.92 226.599 256.12 227.239 255.608C228.775 256.232 229.863 256.744 229.863 257.976C229.863 259 229.143 259.56 228.135 259.56ZM235.765 261H238.149C238.341 256.36 238.709 253.944 241.461 250.584V249.144H233.589V251.128H238.917C236.661 254.264 235.973 256.888 235.765 261ZM244.835 256.136L246.675 253.192C247.011 252.552 247.331 251.896 247.619 251.256H247.683C247.651 251.96 247.603 253.032 247.603 253.72V256.136H244.835ZM247.603 261H249.795V257.928H251.187V256.136H249.795V249.144H246.963L242.547 256.328V257.928H247.603V261Z" fill="#217FEF"/>
<path d="M299.167 244.888C299.167 243.432 299.887 242.712 300.767 242.712C301.775 242.712 302.591 243.512 302.799 245.656C302.255 246.568 301.503 246.936 300.847 246.936C299.823 246.936 299.167 246.28 299.167 244.888ZM300.447 253.224C302.799 253.224 304.991 251.288 304.991 246.808C304.991 242.696 302.975 240.936 300.735 240.936C298.703 240.936 297.007 242.456 297.007 244.888C297.007 247.4 298.431 248.616 300.399 248.616C301.199 248.616 302.207 248.136 302.831 247.336C302.719 250.296 301.631 251.304 300.303 251.304C299.599 251.304 298.879 250.936 298.447 250.456L297.199 251.88C297.903 252.6 298.975 253.224 300.447 253.224ZM310.717 247.208C311.741 247.208 312.413 247.864 312.413 249.256C312.413 250.712 311.677 251.448 310.797 251.448C309.805 251.448 309.005 250.616 308.781 248.456C309.325 247.56 310.077 247.208 310.717 247.208ZM310.845 253.224C312.861 253.224 314.557 251.688 314.557 249.256C314.557 246.728 313.149 245.544 311.165 245.544C310.397 245.544 309.373 246.024 308.733 246.824C308.829 243.848 309.949 242.824 311.309 242.824C311.997 242.824 312.717 243.208 313.133 243.688L314.381 242.28C313.661 241.544 312.621 240.936 311.165 240.936C308.781 240.936 306.589 242.824 306.589 247.24C306.589 251.416 308.589 253.224 310.845 253.224ZM317.835 248.136L319.675 245.192C320.011 244.552 320.331 243.896 320.619 243.256H320.683C320.651 243.96 320.603 245.032 320.603 245.72V248.136H317.835ZM320.603 253H322.795V249.928H324.187V248.136H322.795V241.144H319.963L315.547 248.328V249.928H320.603V253Z" fill="#217FEF"/>
<path d="M71.7427 13H79.6787V11.016H77.1187C76.5587 11.016 75.7747 11.08 75.1827 11.144C77.3427 9.032 79.1187 6.728 79.1187 4.584C79.1187 2.376 77.6307 0.936 75.3907 0.936C73.7747 0.936 72.7187 1.56 71.6307 2.728L72.9107 4.008C73.5187 3.352 74.2227 2.792 75.0867 2.792C76.2227 2.792 76.8627 3.512 76.8627 4.712C76.8627 6.536 74.9587 8.76 71.7427 11.64V13ZM81.8206 16.408C83.7566 15.768 84.8446 14.344 84.8446 12.472C84.8446 11.016 84.2366 10.152 83.1486 10.152C82.3166 10.152 81.6286 10.696 81.6286 11.544C81.6286 12.44 82.3326 12.936 83.1006 12.936C83.1486 12.936 83.1966 12.936 83.2446 12.936C83.2606 13.832 82.5726 14.664 81.3246 15.128L81.8206 16.408ZM88.4797 4.888C88.4797 3.432 89.1997 2.712 90.0797 2.712C91.0877 2.712 91.9037 3.512 92.1117 5.656C91.5677 6.568 90.8157 6.936 90.1597 6.936C89.1357 6.936 88.4797 6.28 88.4797 4.888ZM89.7597 13.224C92.1117 13.224 94.3037 11.288 94.3037 6.808C94.3037 2.696 92.2877 0.936 90.0477 0.936C88.0157 0.936 86.3197 2.456 86.3197 4.888C86.3197 7.4 87.7437 8.616 89.7117 8.616C90.5117 8.616 91.5197 8.136 92.1437 7.336C92.0317 10.296 90.9437 11.304 89.6157 11.304C88.9117 11.304 88.1917 10.936 87.7597 10.456L86.5117 11.88C87.2157 12.6 88.2877 13.224 89.7597 13.224ZM98.0776 13H100.462C100.654 8.36 101.022 5.944 103.774 2.584V1.144H95.9016V3.128H101.23C98.9736 6.264 98.2856 8.888 98.0776 13ZM109.243 13.224C111.659 13.224 113.243 11.112 113.243 7.032C113.243 2.952 111.659 0.936 109.243 0.936C106.827 0.936 105.227 2.936 105.227 7.032C105.227 11.112 106.827 13.224 109.243 13.224ZM109.243 11.384C108.219 11.384 107.451 10.36 107.451 7.032C107.451 3.72 108.219 2.76 109.243 2.76C110.267 2.76 111.019 3.72 111.019 7.032C111.019 10.36 110.267 11.384 109.243 11.384Z" fill="#217FEF"/>
</svg>
