<svg width="968" height="447" viewBox="0 0 968 447" fill="none" xmlns="http://www.w3.org/2000/svg">
<g style="mix-blend-mode:multiply">
<line x1="34.5" y1="16.5" x2="34.5" y2="413.5" stroke="#646C70"/>
<g style="mix-blend-mode:multiply">
<line x1="34" y1="15.5" x2="968" y2="15.5" stroke="#EEF1F1"/>
</g>
<g style="mix-blend-mode:multiply">
<line x1="34" y1="46.1172" x2="968" y2="46.1172" stroke="#EEF1F1"/>
</g>
<g style="mix-blend-mode:multiply">
<line x1="34" y1="76.7305" x2="968" y2="76.7305" stroke="#EEF1F1"/>
</g>
<g style="mix-blend-mode:multiply">
<line x1="34" y1="107.348" x2="968" y2="107.348" stroke="#EEF1F1"/>
</g>
<g style="mix-blend-mode:multiply">
<line x1="34" y1="137.961" x2="968" y2="137.961" stroke="#EEF1F1"/>
</g>
<g style="mix-blend-mode:multiply">
<line x1="34" y1="168.578" x2="968" y2="168.578" stroke="#EEF1F1"/>
</g>
<g style="mix-blend-mode:multiply">
<line x1="34" y1="199.191" x2="968" y2="199.191" stroke="#EEF1F1"/>
</g>
<g style="mix-blend-mode:multiply">
<line x1="34" y1="229.809" x2="968" y2="229.809" stroke="#EEF1F1"/>
</g>
<g style="mix-blend-mode:multiply">
<line x1="34" y1="260.422" x2="968" y2="260.422" stroke="#EEF1F1"/>
</g>
<g style="mix-blend-mode:multiply">
<line x1="34" y1="291.039" x2="968" y2="291.039" stroke="#EEF1F1"/>
</g>
<g style="mix-blend-mode:multiply">
<line x1="34" y1="321.652" x2="968" y2="321.652" stroke="#EEF1F1"/>
</g>
<g style="mix-blend-mode:multiply">
<line x1="34" y1="352.27" x2="968" y2="352.27" stroke="#EEF1F1"/>
</g>
<g style="mix-blend-mode:multiply">
<line x1="34" y1="382.883" x2="968" y2="382.883" stroke="#EEF1F1"/>
</g>
<g style="mix-blend-mode:multiply">
<line x1="34" y1="413.5" x2="968" y2="413.5" stroke="#646C70"/>
</g>
<path d="M130 27.9961C130 25.787 131.791 23.9961 134 23.9961H170C172.209 23.9961 174 25.787 174 27.9961V413.996H130V27.9961Z" fill="#25C9EF"/>
<path d="M230 311.996C230 309.787 231.791 307.996 234 307.996H270C272.209 307.996 274 309.787 274 311.996V413.996H230V311.996Z" fill="#25C9EF"/>
<path d="M330 278.996C330 276.787 331.791 274.996 334 274.996H370C372.209 274.996 374 276.787 374 278.996V413.996H330V278.996Z" fill="#25C9EF"/>
<path d="M430 270.996C430 268.787 431.791 266.996 434 266.996H470C472.209 266.996 474 268.787 474 270.996V413.996H430V270.996Z" fill="#25C9EF"/>
<path d="M530 245.996C530 243.787 531.791 241.996 534 241.996H570C572.209 241.996 574 243.787 574 245.996V413.996H530V245.996Z" fill="#25C9EF"/>
<path d="M630 235.996C630 233.787 631.791 231.996 634 231.996H669C671.209 231.996 673 233.787 673 235.996V413.996H630V235.996Z" fill="#25C9EF"/>
<path d="M729 215.996C729 213.787 730.791 211.996 733 211.996H769C771.209 211.996 773 213.787 773 215.996V413.996H729V215.996Z" fill="#25C9EF"/>
<path d="M829 252.996C829 250.787 830.791 248.996 833 248.996H868C870.209 248.996 872 250.787 872 252.996V413.996H829V252.996Z" fill="#25C9EF"/>
</g>
<path d="M3.543 30.156C5.103 30.156 6.363 29.22 6.363 27.648C6.363 26.448 5.535 25.656 4.503 25.416V25.368C5.427 25.02 6.063 24.312 6.063 23.244C6.063 21.852 4.983 21.036 3.507 21.036C2.487 21.036 1.707 21.48 1.047 22.092L1.635 22.788C2.127 22.284 2.751 21.936 3.459 21.936C4.371 21.936 4.947 22.488 4.947 23.328C4.947 24.276 4.323 25.008 2.511 25.008V25.848C4.539 25.848 5.247 26.556 5.247 27.6C5.247 28.62 4.503 29.244 3.459 29.244C2.463 29.244 1.791 28.776 1.275 28.236L0.723 28.956C1.299 29.58 2.163 30.156 3.543 30.156ZM10.3673 30.156C12.0353 30.156 13.1033 28.632 13.1033 25.572C13.1033 22.524 12.0353 21.036 10.3673 21.036C8.68725 21.036 7.61925 22.512 7.61925 25.572C7.61925 28.632 8.68725 30.156 10.3673 30.156ZM10.3673 29.28C9.35925 29.28 8.68725 28.164 8.68725 25.572C8.68725 23.004 9.35925 21.912 10.3673 21.912C11.3633 21.912 12.0353 23.004 12.0353 25.572C12.0353 28.164 11.3633 29.28 10.3673 29.28ZM17.0235 30.156C18.6915 30.156 19.7595 28.632 19.7595 25.572C19.7595 22.524 18.6915 21.036 17.0235 21.036C15.3435 21.036 14.2755 22.512 14.2755 25.572C14.2755 28.632 15.3435 30.156 17.0235 30.156ZM17.0235 29.28C16.0155 29.28 15.3435 28.164 15.3435 25.572C15.3435 23.004 16.0155 21.912 17.0235 21.912C18.0195 21.912 18.6915 23.004 18.6915 25.572C18.6915 28.164 18.0195 29.28 17.0235 29.28ZM23.6798 30.156C25.3478 30.156 26.4158 28.632 26.4158 25.572C26.4158 22.524 25.3478 21.036 23.6798 21.036C21.9998 21.036 20.9318 22.512 20.9318 25.572C20.9318 28.632 21.9998 30.156 23.6798 30.156ZM23.6798 29.28C22.6718 29.28 21.9998 28.164 21.9998 25.572C21.9998 23.004 22.6718 21.912 23.6798 21.912C24.6758 21.912 25.3478 23.004 25.3478 25.572C25.3478 28.164 24.6758 29.28 23.6798 29.28Z" fill="#9BA5AB"/>
<path d="M0.903 60H6.435V59.052H3.999C3.555 59.052 3.015 59.1 2.559 59.136C4.623 57.18 6.003 55.392 6.003 53.64C6.003 52.068 5.019 51.036 3.447 51.036C2.331 51.036 1.575 51.552 0.855 52.332L1.491 52.956C1.971 52.38 2.595 51.936 3.315 51.936C4.407 51.936 4.935 52.668 4.935 53.676C4.935 55.188 3.663 56.94 0.903 59.352V60ZM10.3793 60.156C12.0353 60.156 13.1393 59.16 13.1393 57.876C13.1393 56.676 12.4193 56.016 11.6513 55.572V55.512C12.1793 55.104 12.8273 54.312 12.8273 53.388C12.8273 52.032 11.9153 51.072 10.4153 51.072C9.04725 51.072 8.00325 51.96 8.00325 53.304C8.00325 54.228 8.54325 54.888 9.19125 55.332V55.392C8.38725 55.824 7.57125 56.64 7.57125 57.816C7.57125 59.172 8.75925 60.156 10.3793 60.156ZM10.9793 55.224C9.94725 54.816 8.99925 54.36 8.99925 53.304C8.99925 52.452 9.58725 51.876 10.4033 51.876C11.3513 51.876 11.8913 52.584 11.8913 53.448C11.8913 54.096 11.5793 54.696 10.9793 55.224ZM10.4033 59.34C9.34725 59.34 8.56725 58.656 8.56725 57.72C8.56725 56.88 9.05925 56.184 9.76725 55.728C11.0153 56.232 12.0953 56.676 12.0953 57.852C12.0953 58.728 11.4113 59.34 10.4033 59.34ZM17.0235 60.156C18.6915 60.156 19.7595 58.632 19.7595 55.572C19.7595 52.524 18.6915 51.036 17.0235 51.036C15.3435 51.036 14.2755 52.512 14.2755 55.572C14.2755 58.632 15.3435 60.156 17.0235 60.156ZM17.0235 59.28C16.0155 59.28 15.3435 58.164 15.3435 55.572C15.3435 53.004 16.0155 51.912 17.0235 51.912C18.0195 51.912 18.6915 53.004 18.6915 55.572C18.6915 58.164 18.0195 59.28 17.0235 59.28ZM23.6798 60.156C25.3478 60.156 26.4158 58.632 26.4158 55.572C26.4158 52.524 25.3478 51.036 23.6798 51.036C21.9998 51.036 20.9318 52.512 20.9318 55.572C20.9318 58.632 21.9998 60.156 23.6798 60.156ZM23.6798 59.28C22.6718 59.28 21.9998 58.164 21.9998 55.572C21.9998 53.004 22.6718 51.912 23.6798 51.912C24.6758 51.912 25.3478 53.004 25.3478 55.572C25.3478 58.164 24.6758 59.28 23.6798 59.28Z" fill="#9BA5AB"/>
<path d="M0.903 90H6.435V89.052H3.999C3.555 89.052 3.015 89.1 2.559 89.136C4.623 87.18 6.003 85.392 6.003 83.64C6.003 82.068 5.019 81.036 3.447 81.036C2.331 81.036 1.575 81.552 0.855 82.332L1.491 82.956C1.971 82.38 2.595 81.936 3.315 81.936C4.407 81.936 4.935 82.668 4.935 83.676C4.935 85.188 3.663 86.94 0.903 89.352V90ZM10.5473 85.356C11.6153 85.356 12.1433 86.112 12.1433 87.3C12.1433 88.5 11.4833 89.304 10.6433 89.304C9.53925 89.304 8.87925 88.308 8.74725 86.484C9.28725 85.68 9.99525 85.356 10.5473 85.356ZM10.6433 90.156C12.0113 90.156 13.1633 89.004 13.1633 87.3C13.1633 85.464 12.2153 84.54 10.7273 84.54C10.0312 84.54 9.26325 84.948 8.72325 85.608C8.77125 82.872 9.79125 81.948 10.9913 81.948C11.5313 81.948 12.0593 82.2 12.4073 82.62L13.0073 81.936C12.5273 81.42 11.8673 81.036 10.9553 81.036C9.25125 81.036 7.70325 82.356 7.70325 85.8C7.70325 88.704 8.95125 90.156 10.6433 90.156ZM17.0235 90.156C18.6915 90.156 19.7595 88.632 19.7595 85.572C19.7595 82.524 18.6915 81.036 17.0235 81.036C15.3435 81.036 14.2755 82.512 14.2755 85.572C14.2755 88.632 15.3435 90.156 17.0235 90.156ZM17.0235 89.28C16.0155 89.28 15.3435 88.164 15.3435 85.572C15.3435 83.004 16.0155 81.912 17.0235 81.912C18.0195 81.912 18.6915 83.004 18.6915 85.572C18.6915 88.164 18.0195 89.28 17.0235 89.28ZM23.6798 90.156C25.3478 90.156 26.4158 88.632 26.4158 85.572C26.4158 82.524 25.3478 81.036 23.6798 81.036C21.9998 81.036 20.9318 82.512 20.9318 85.572C20.9318 88.632 21.9998 90.156 23.6798 90.156ZM23.6798 89.28C22.6718 89.28 21.9998 88.164 21.9998 85.572C21.9998 83.004 22.6718 81.912 23.6798 81.912C24.6758 81.912 25.3478 83.004 25.3478 85.572C25.3478 88.164 24.6758 89.28 23.6798 89.28Z" fill="#9BA5AB"/>
<path d="M0.903 120H6.435V119.052H3.999C3.555 119.052 3.015 119.1 2.559 119.136C4.623 117.18 6.003 115.392 6.003 113.64C6.003 112.068 5.019 111.036 3.447 111.036C2.331 111.036 1.575 111.552 0.855 112.332L1.491 112.956C1.971 112.38 2.595 111.936 3.315 111.936C4.407 111.936 4.935 112.668 4.935 113.676C4.935 115.188 3.663 116.94 0.903 119.352V120ZM8.41125 116.7L10.4153 113.7C10.6673 113.268 10.9073 112.836 11.1233 112.404H11.1713C11.1473 112.86 11.1113 113.568 11.1113 114V116.7H8.41125ZM11.1113 120H12.1433V117.576H13.3073V116.7H12.1433V111.192H10.9313L7.27125 116.856V117.576H11.1113V120ZM17.0235 120.156C18.6915 120.156 19.7595 118.632 19.7595 115.572C19.7595 112.524 18.6915 111.036 17.0235 111.036C15.3435 111.036 14.2755 112.512 14.2755 115.572C14.2755 118.632 15.3435 120.156 17.0235 120.156ZM17.0235 119.28C16.0155 119.28 15.3435 118.164 15.3435 115.572C15.3435 113.004 16.0155 111.912 17.0235 111.912C18.0195 111.912 18.6915 113.004 18.6915 115.572C18.6915 118.164 18.0195 119.28 17.0235 119.28ZM23.6798 120.156C25.3478 120.156 26.4158 118.632 26.4158 115.572C26.4158 112.524 25.3478 111.036 23.6798 111.036C21.9998 111.036 20.9318 112.512 20.9318 115.572C20.9318 118.632 21.9998 120.156 23.6798 120.156ZM23.6798 119.28C22.6718 119.28 21.9998 118.164 21.9998 115.572C21.9998 113.004 22.6718 111.912 23.6798 111.912C24.6758 111.912 25.3478 113.004 25.3478 115.572C25.3478 118.164 24.6758 119.28 23.6798 119.28Z" fill="#9BA5AB"/>
<path d="M0.903 150H6.435V149.052H3.999C3.555 149.052 3.015 149.1 2.559 149.136C4.623 147.18 6.003 145.392 6.003 143.64C6.003 142.068 5.019 141.036 3.447 141.036C2.331 141.036 1.575 141.552 0.855 142.332L1.491 142.956C1.971 142.38 2.595 141.936 3.315 141.936C4.407 141.936 4.935 142.668 4.935 143.676C4.935 145.188 3.663 146.94 0.903 149.352V150ZM7.55925 150H13.0912V149.052H10.6553C10.2113 149.052 9.67125 149.1 9.21525 149.136C11.2793 147.18 12.6593 145.392 12.6593 143.64C12.6593 142.068 11.6753 141.036 10.1033 141.036C8.98725 141.036 8.23125 141.552 7.51125 142.332L8.14725 142.956C8.62725 142.38 9.25125 141.936 9.97125 141.936C11.0633 141.936 11.5913 142.668 11.5913 143.676C11.5913 145.188 10.3193 146.94 7.55925 149.352V150ZM17.0235 150.156C18.6915 150.156 19.7595 148.632 19.7595 145.572C19.7595 142.524 18.6915 141.036 17.0235 141.036C15.3435 141.036 14.2755 142.512 14.2755 145.572C14.2755 148.632 15.3435 150.156 17.0235 150.156ZM17.0235 149.28C16.0155 149.28 15.3435 148.164 15.3435 145.572C15.3435 143.004 16.0155 141.912 17.0235 141.912C18.0195 141.912 18.6915 143.004 18.6915 145.572C18.6915 148.164 18.0195 149.28 17.0235 149.28ZM23.6798 150.156C25.3478 150.156 26.4158 148.632 26.4158 145.572C26.4158 142.524 25.3478 141.036 23.6798 141.036C21.9998 141.036 20.9318 142.512 20.9318 145.572C20.9318 148.632 21.9998 150.156 23.6798 150.156ZM23.6798 149.28C22.6718 149.28 21.9998 148.164 21.9998 145.572C21.9998 143.004 22.6718 141.912 23.6798 141.912C24.6758 141.912 25.3478 143.004 25.3478 145.572C25.3478 148.164 24.6758 149.28 23.6798 149.28Z" fill="#9BA5AB"/>
<path d="M0.903 180H6.435V179.052H3.999C3.555 179.052 3.015 179.1 2.559 179.136C4.623 177.18 6.003 175.392 6.003 173.64C6.003 172.068 5.019 171.036 3.447 171.036C2.331 171.036 1.575 171.552 0.855 172.332L1.491 172.956C1.971 172.38 2.595 171.936 3.315 171.936C4.407 171.936 4.935 172.668 4.935 173.676C4.935 175.188 3.663 176.94 0.903 179.352V180ZM10.3673 180.156C12.0353 180.156 13.1033 178.632 13.1033 175.572C13.1033 172.524 12.0353 171.036 10.3673 171.036C8.68725 171.036 7.61925 172.512 7.61925 175.572C7.61925 178.632 8.68725 180.156 10.3673 180.156ZM10.3673 179.28C9.35925 179.28 8.68725 178.164 8.68725 175.572C8.68725 173.004 9.35925 171.912 10.3673 171.912C11.3633 171.912 12.0353 173.004 12.0353 175.572C12.0353 178.164 11.3633 179.28 10.3673 179.28ZM17.0235 180.156C18.6915 180.156 19.7595 178.632 19.7595 175.572C19.7595 172.524 18.6915 171.036 17.0235 171.036C15.3435 171.036 14.2755 172.512 14.2755 175.572C14.2755 178.632 15.3435 180.156 17.0235 180.156ZM17.0235 179.28C16.0155 179.28 15.3435 178.164 15.3435 175.572C15.3435 173.004 16.0155 171.912 17.0235 171.912C18.0195 171.912 18.6915 173.004 18.6915 175.572C18.6915 178.164 18.0195 179.28 17.0235 179.28ZM23.6798 180.156C25.3478 180.156 26.4158 178.632 26.4158 175.572C26.4158 172.524 25.3478 171.036 23.6798 171.036C21.9998 171.036 20.9318 172.512 20.9318 175.572C20.9318 178.632 21.9998 180.156 23.6798 180.156ZM23.6798 179.28C22.6718 179.28 21.9998 178.164 21.9998 175.572C21.9998 173.004 22.6718 171.912 23.6798 171.912C24.6758 171.912 25.3478 173.004 25.3478 175.572C25.3478 178.164 24.6758 179.28 23.6798 179.28Z" fill="#9BA5AB"/>
<path d="M1.431 210H6.255V209.088H4.491V201.192H3.651C3.171 201.48 2.607 201.684 1.827 201.828V202.524H3.387V209.088H1.431V210ZM8.41125 206.7L10.4153 203.7C10.6673 203.268 10.9073 202.836 11.1233 202.404H11.1713C11.1473 202.86 11.1113 203.568 11.1113 204V206.7H8.41125ZM11.1113 210H12.1433V207.576H13.3073V206.7H12.1433V201.192H10.9313L7.27125 206.856V207.576H11.1113V210ZM17.0235 210.156C18.6915 210.156 19.7595 208.632 19.7595 205.572C19.7595 202.524 18.6915 201.036 17.0235 201.036C15.3435 201.036 14.2755 202.512 14.2755 205.572C14.2755 208.632 15.3435 210.156 17.0235 210.156ZM17.0235 209.28C16.0155 209.28 15.3435 208.164 15.3435 205.572C15.3435 203.004 16.0155 201.912 17.0235 201.912C18.0195 201.912 18.6915 203.004 18.6915 205.572C18.6915 208.164 18.0195 209.28 17.0235 209.28ZM23.6798 210.156C25.3478 210.156 26.4158 208.632 26.4158 205.572C26.4158 202.524 25.3478 201.036 23.6798 201.036C21.9998 201.036 20.9318 202.512 20.9318 205.572C20.9318 208.632 21.9998 210.156 23.6798 210.156ZM23.6798 209.28C22.6718 209.28 21.9998 208.164 21.9998 205.572C21.9998 203.004 22.6718 201.912 23.6798 201.912C24.6758 201.912 25.3478 203.004 25.3478 205.572C25.3478 208.164 24.6758 209.28 23.6798 209.28Z" fill="#9BA5AB"/>
<path d="M1.431 240H6.255V239.088H4.491V231.192H3.651C3.171 231.48 2.607 231.684 1.827 231.828V232.524H3.387V239.088H1.431V240ZM7.55925 240H13.0912V239.052H10.6553C10.2113 239.052 9.67125 239.1 9.21525 239.136C11.2793 237.18 12.6593 235.392 12.6593 233.64C12.6593 232.068 11.6753 231.036 10.1033 231.036C8.98725 231.036 8.23125 231.552 7.51125 232.332L8.14725 232.956C8.62725 232.38 9.25125 231.936 9.97125 231.936C11.0633 231.936 11.5913 232.668 11.5913 233.676C11.5913 235.188 10.3193 236.94 7.55925 239.352V240ZM17.0235 240.156C18.6915 240.156 19.7595 238.632 19.7595 235.572C19.7595 232.524 18.6915 231.036 17.0235 231.036C15.3435 231.036 14.2755 232.512 14.2755 235.572C14.2755 238.632 15.3435 240.156 17.0235 240.156ZM17.0235 239.28C16.0155 239.28 15.3435 238.164 15.3435 235.572C15.3435 233.004 16.0155 231.912 17.0235 231.912C18.0195 231.912 18.6915 233.004 18.6915 235.572C18.6915 238.164 18.0195 239.28 17.0235 239.28ZM23.6798 240.156C25.3478 240.156 26.4158 238.632 26.4158 235.572C26.4158 232.524 25.3478 231.036 23.6798 231.036C21.9998 231.036 20.9318 232.512 20.9318 235.572C20.9318 238.632 21.9998 240.156 23.6798 240.156ZM23.6798 239.28C22.6718 239.28 21.9998 238.164 21.9998 235.572C21.9998 233.004 22.6718 231.912 23.6798 231.912C24.6758 231.912 25.3478 233.004 25.3478 235.572C25.3478 238.164 24.6758 239.28 23.6798 239.28Z" fill="#9BA5AB"/>
<path d="M1.431 270H6.255V269.088H4.491V261.192H3.651C3.171 261.48 2.607 261.684 1.827 261.828V262.524H3.387V269.088H1.431V270ZM10.3673 270.156C12.0353 270.156 13.1033 268.632 13.1033 265.572C13.1033 262.524 12.0353 261.036 10.3673 261.036C8.68725 261.036 7.61925 262.512 7.61925 265.572C7.61925 268.632 8.68725 270.156 10.3673 270.156ZM10.3673 269.28C9.35925 269.28 8.68725 268.164 8.68725 265.572C8.68725 263.004 9.35925 261.912 10.3673 261.912C11.3633 261.912 12.0353 263.004 12.0353 265.572C12.0353 268.164 11.3633 269.28 10.3673 269.28ZM17.0235 270.156C18.6915 270.156 19.7595 268.632 19.7595 265.572C19.7595 262.524 18.6915 261.036 17.0235 261.036C15.3435 261.036 14.2755 262.512 14.2755 265.572C14.2755 268.632 15.3435 270.156 17.0235 270.156ZM17.0235 269.28C16.0155 269.28 15.3435 268.164 15.3435 265.572C15.3435 263.004 16.0155 261.912 17.0235 261.912C18.0195 261.912 18.6915 263.004 18.6915 265.572C18.6915 268.164 18.0195 269.28 17.0235 269.28ZM23.6798 270.156C25.3478 270.156 26.4158 268.632 26.4158 265.572C26.4158 262.524 25.3478 261.036 23.6798 261.036C21.9998 261.036 20.9318 262.512 20.9318 265.572C20.9318 268.632 21.9998 270.156 23.6798 270.156ZM23.6798 269.28C22.6718 269.28 21.9998 268.164 21.9998 265.572C21.9998 263.004 22.6718 261.912 23.6798 261.912C24.6758 261.912 25.3478 263.004 25.3478 265.572C25.3478 268.164 24.6758 269.28 23.6798 269.28Z" fill="#9BA5AB"/>
<path d="M10.3793 300.156C12.0353 300.156 13.1393 299.16 13.1393 297.876C13.1393 296.676 12.4193 296.016 11.6513 295.572V295.512C12.1793 295.104 12.8273 294.312 12.8273 293.388C12.8273 292.032 11.9153 291.072 10.4153 291.072C9.04725 291.072 8.00325 291.96 8.00325 293.304C8.00325 294.228 8.54325 294.888 9.19125 295.332V295.392C8.38725 295.824 7.57125 296.64 7.57125 297.816C7.57125 299.172 8.75925 300.156 10.3793 300.156ZM10.9793 295.224C9.94725 294.816 8.99925 294.36 8.99925 293.304C8.99925 292.452 9.58725 291.876 10.4033 291.876C11.3513 291.876 11.8913 292.584 11.8913 293.448C11.8913 294.096 11.5793 294.696 10.9793 295.224ZM10.4033 299.34C9.34725 299.34 8.56725 298.656 8.56725 297.72C8.56725 296.88 9.05925 296.184 9.76725 295.728C11.0153 296.232 12.0953 296.676 12.0953 297.852C12.0953 298.728 11.4113 299.34 10.4033 299.34ZM17.0235 300.156C18.6915 300.156 19.7595 298.632 19.7595 295.572C19.7595 292.524 18.6915 291.036 17.0235 291.036C15.3435 291.036 14.2755 292.512 14.2755 295.572C14.2755 298.632 15.3435 300.156 17.0235 300.156ZM17.0235 299.28C16.0155 299.28 15.3435 298.164 15.3435 295.572C15.3435 293.004 16.0155 291.912 17.0235 291.912C18.0195 291.912 18.6915 293.004 18.6915 295.572C18.6915 298.164 18.0195 299.28 17.0235 299.28ZM23.6798 300.156C25.3478 300.156 26.4158 298.632 26.4158 295.572C26.4158 292.524 25.3478 291.036 23.6798 291.036C21.9998 291.036 20.9318 292.512 20.9318 295.572C20.9318 298.632 21.9998 300.156 23.6798 300.156ZM23.6798 299.28C22.6718 299.28 21.9998 298.164 21.9998 295.572C21.9998 293.004 22.6718 291.912 23.6798 291.912C24.6758 291.912 25.3478 293.004 25.3478 295.572C25.3478 298.164 24.6758 299.28 23.6798 299.28Z" fill="#9BA5AB"/>
<path d="M10.5473 325.356C11.6153 325.356 12.1433 326.112 12.1433 327.3C12.1433 328.5 11.4833 329.304 10.6433 329.304C9.53925 329.304 8.87925 328.308 8.74725 326.484C9.28725 325.68 9.99525 325.356 10.5473 325.356ZM10.6433 330.156C12.0113 330.156 13.1633 329.004 13.1633 327.3C13.1633 325.464 12.2153 324.54 10.7273 324.54C10.0312 324.54 9.26325 324.948 8.72325 325.608C8.77125 322.872 9.79125 321.948 10.9913 321.948C11.5313 321.948 12.0593 322.2 12.4073 322.62L13.0073 321.936C12.5273 321.42 11.8673 321.036 10.9553 321.036C9.25125 321.036 7.70325 322.356 7.70325 325.8C7.70325 328.704 8.95125 330.156 10.6433 330.156ZM17.0235 330.156C18.6915 330.156 19.7595 328.632 19.7595 325.572C19.7595 322.524 18.6915 321.036 17.0235 321.036C15.3435 321.036 14.2755 322.512 14.2755 325.572C14.2755 328.632 15.3435 330.156 17.0235 330.156ZM17.0235 329.28C16.0155 329.28 15.3435 328.164 15.3435 325.572C15.3435 323.004 16.0155 321.912 17.0235 321.912C18.0195 321.912 18.6915 323.004 18.6915 325.572C18.6915 328.164 18.0195 329.28 17.0235 329.28ZM23.6798 330.156C25.3478 330.156 26.4158 328.632 26.4158 325.572C26.4158 322.524 25.3478 321.036 23.6798 321.036C21.9998 321.036 20.9318 322.512 20.9318 325.572C20.9318 328.632 21.9998 330.156 23.6798 330.156ZM23.6798 329.28C22.6718 329.28 21.9998 328.164 21.9998 325.572C21.9998 323.004 22.6718 321.912 23.6798 321.912C24.6758 321.912 25.3478 323.004 25.3478 325.572C25.3478 328.164 24.6758 329.28 23.6798 329.28Z" fill="#9BA5AB"/>
<path d="M8.41125 356.7L10.4153 353.7C10.6673 353.268 10.9073 352.836 11.1233 352.404H11.1713C11.1473 352.86 11.1113 353.568 11.1113 354V356.7H8.41125ZM11.1113 360H12.1433V357.576H13.3073V356.7H12.1433V351.192H10.9313L7.27125 356.856V357.576H11.1113V360ZM17.0235 360.156C18.6915 360.156 19.7595 358.632 19.7595 355.572C19.7595 352.524 18.6915 351.036 17.0235 351.036C15.3435 351.036 14.2755 352.512 14.2755 355.572C14.2755 358.632 15.3435 360.156 17.0235 360.156ZM17.0235 359.28C16.0155 359.28 15.3435 358.164 15.3435 355.572C15.3435 353.004 16.0155 351.912 17.0235 351.912C18.0195 351.912 18.6915 353.004 18.6915 355.572C18.6915 358.164 18.0195 359.28 17.0235 359.28ZM23.6798 360.156C25.3478 360.156 26.4158 358.632 26.4158 355.572C26.4158 352.524 25.3478 351.036 23.6798 351.036C21.9998 351.036 20.9318 352.512 20.9318 355.572C20.9318 358.632 21.9998 360.156 23.6798 360.156ZM23.6798 359.28C22.6718 359.28 21.9998 358.164 21.9998 355.572C21.9998 353.004 22.6718 351.912 23.6798 351.912C24.6758 351.912 25.3478 353.004 25.3478 355.572C25.3478 358.164 24.6758 359.28 23.6798 359.28Z" fill="#9BA5AB"/>
<path d="M7.55925 390H13.0912V389.052H10.6553C10.2113 389.052 9.67125 389.1 9.21525 389.136C11.2793 387.18 12.6593 385.392 12.6593 383.64C12.6593 382.068 11.6753 381.036 10.1033 381.036C8.98725 381.036 8.23125 381.552 7.51125 382.332L8.14725 382.956C8.62725 382.38 9.25125 381.936 9.97125 381.936C11.0633 381.936 11.5913 382.668 11.5913 383.676C11.5913 385.188 10.3193 386.94 7.55925 389.352V390ZM17.0235 390.156C18.6915 390.156 19.7595 388.632 19.7595 385.572C19.7595 382.524 18.6915 381.036 17.0235 381.036C15.3435 381.036 14.2755 382.512 14.2755 385.572C14.2755 388.632 15.3435 390.156 17.0235 390.156ZM17.0235 389.28C16.0155 389.28 15.3435 388.164 15.3435 385.572C15.3435 383.004 16.0155 381.912 17.0235 381.912C18.0195 381.912 18.6915 383.004 18.6915 385.572C18.6915 388.164 18.0195 389.28 17.0235 389.28ZM23.6798 390.156C25.3478 390.156 26.4158 388.632 26.4158 385.572C26.4158 382.524 25.3478 381.036 23.6798 381.036C21.9998 381.036 20.9318 382.512 20.9318 385.572C20.9318 388.632 21.9998 390.156 23.6798 390.156ZM23.6798 389.28C22.6718 389.28 21.9998 388.164 21.9998 385.572C21.9998 383.004 22.6718 381.912 23.6798 381.912C24.6758 381.912 25.3478 383.004 25.3478 385.572C25.3478 388.164 24.6758 389.28 23.6798 389.28Z" fill="#9BA5AB"/>
<path d="M23.6798 420.156C25.3478 420.156 26.4158 418.632 26.4158 415.572C26.4158 412.524 25.3478 411.036 23.6798 411.036C21.9998 411.036 20.9318 412.512 20.9318 415.572C20.9318 418.632 21.9998 420.156 23.6798 420.156ZM23.6798 419.28C22.6718 419.28 21.9998 418.164 21.9998 415.572C21.9998 413.004 22.6718 411.912 23.6798 411.912C24.6758 411.912 25.3478 413.004 25.3478 415.572C25.3478 418.164 24.6758 419.28 23.6798 419.28Z" fill="#9BA5AB"/>
<path d="M134.543 441.982C135.215 441.982 135.915 441.562 136.489 440.596L135.775 440.078C135.425 440.75 135.033 441.03 134.571 441.03C133.689 441.03 133.031 439.7 131.799 439.7C131.127 439.7 130.413 440.12 129.853 441.114L130.567 441.618C130.931 440.946 131.323 440.666 131.771 440.666C132.653 440.666 133.325 441.982 134.543 441.982ZM137.675 446H144.115V444.908H141.273C140.755 444.908 140.139 444.95 139.593 445.006C142.015 442.724 143.625 440.638 143.625 438.58C143.625 436.746 142.477 435.556 140.643 435.556C139.341 435.556 138.445 436.158 137.605 437.068L138.347 437.782C138.921 437.11 139.649 436.592 140.489 436.592C141.763 436.592 142.365 437.46 142.365 438.636C142.365 440.386 140.895 442.444 137.675 445.258V446ZM148.716 446.196C150.648 446.196 151.894 444.418 151.894 440.834C151.894 437.278 150.648 435.556 148.716 435.556C146.756 435.556 145.51 437.278 145.51 440.834C145.51 444.418 146.756 446.196 148.716 446.196ZM148.716 445.16C147.54 445.16 146.742 443.858 146.742 440.834C146.742 437.852 147.54 436.578 148.716 436.578C149.878 436.578 150.662 437.852 150.662 440.834C150.662 443.858 149.878 445.16 148.716 445.16ZM153.822 446H159.45V444.936H157.378V435.738H156.398C155.852 436.074 155.194 436.312 154.27 436.466V437.292H156.104V444.936H153.822V446ZM164.009 446.196C165.731 446.196 167.369 444.908 167.369 442.668C167.369 440.4 165.983 439.392 164.275 439.392C163.659 439.392 163.197 439.546 162.735 439.798L163.001 436.83H166.879V435.738H161.881L161.559 440.54L162.245 440.974C162.833 440.582 163.267 440.358 163.953 440.358C165.227 440.358 166.067 441.24 166.067 442.71C166.067 444.194 165.101 445.132 163.883 445.132C162.707 445.132 161.951 444.586 161.377 443.984L160.733 444.824C161.433 445.524 162.413 446.196 164.009 446.196ZM178.061 434.436V443.816H179.223V434.436H178.061ZM174.491 436.088V437.026H178.495V436.088H174.491ZM171.131 445.86V446.812H179.559V445.86H171.131ZM171.131 443.004V446.294H172.293V443.004H171.131ZM169.549 435.36V441.324H170.711V435.36H169.549ZM169.549 440.96V441.926H170.501C172.363 441.926 174.057 441.842 176.087 441.478L175.975 440.512C174.001 440.862 172.307 440.96 170.501 440.96H169.549ZM174.491 438.496V439.448H178.495V438.496H174.491Z" fill="#383E41"/>
<path d="M236.532 446H242.986V444.894H240.144C239.626 444.894 238.996 444.95 238.464 444.992C240.872 442.71 242.482 440.624 242.482 438.58C242.482 436.746 241.334 435.542 239.5 435.542C238.198 435.542 237.316 436.144 236.476 437.054L237.218 437.782C237.778 437.11 238.506 436.592 239.346 436.592C240.62 436.592 241.236 437.446 241.236 438.622C241.236 440.386 239.752 442.43 236.532 445.244V446ZM247.574 446.182C249.52 446.182 250.766 444.404 250.766 440.834C250.766 437.278 249.52 435.542 247.574 435.542C245.614 435.542 244.368 437.264 244.368 440.834C244.368 444.404 245.614 446.182 247.574 446.182ZM247.574 445.16C246.398 445.16 245.614 443.858 245.614 440.834C245.614 437.838 246.398 436.564 247.574 436.564C248.736 436.564 249.52 437.838 249.52 440.834C249.52 443.858 248.736 445.16 247.574 445.16ZM252.679 446H258.307V444.936H256.249V435.724H255.269C254.709 436.06 254.051 436.298 253.141 436.466V437.278H254.961V444.936H252.679V446ZM263.315 440.582C264.561 440.582 265.177 441.464 265.177 442.85C265.177 444.25 264.407 445.188 263.427 445.188C262.139 445.188 261.369 444.026 261.215 441.898C261.845 440.96 262.671 440.582 263.315 440.582ZM263.427 446.182C265.023 446.182 266.367 444.838 266.367 442.85C266.367 440.708 265.261 439.63 263.525 439.63C262.713 439.63 261.817 440.106 261.187 440.876C261.243 437.684 262.433 436.606 263.833 436.606C264.463 436.606 265.079 436.9 265.485 437.39L266.185 436.592C265.625 435.99 264.855 435.542 263.791 435.542C261.803 435.542 259.997 437.082 259.997 441.1C259.997 444.488 261.453 446.182 263.427 446.182ZM276.905 443.788H278.067V434.492H276.905V436.116H273.363V437.04H276.905V438.524H273.363V439.434H276.905V443.788ZM274.833 440.512C272.957 440.848 271.319 440.946 269.597 440.96V435.388H268.449V441.926H269.401C271.249 441.926 272.943 441.828 274.959 441.464L274.833 440.512ZM271.165 445.818V442.99H270.017V446.756H278.389V445.818H271.165Z" fill="#383E41"/>
<path d="M335.388 446H341.842V444.894H339C338.482 444.894 337.852 444.95 337.32 444.992C339.728 442.71 341.338 440.624 341.338 438.58C341.338 436.746 340.19 435.542 338.356 435.542C337.054 435.542 336.172 436.144 335.332 437.054L336.074 437.782C336.634 437.11 337.362 436.592 338.202 436.592C339.476 436.592 340.092 437.446 340.092 438.622C340.092 440.386 338.608 442.43 335.388 445.244V446ZM346.43 446.182C348.376 446.182 349.622 444.404 349.622 440.834C349.622 437.278 348.376 435.542 346.43 435.542C344.47 435.542 343.224 437.264 343.224 440.834C343.224 444.404 344.47 446.182 346.43 446.182ZM346.43 445.16C345.254 445.16 344.47 443.858 344.47 440.834C344.47 437.838 345.254 436.564 346.43 436.564C347.592 436.564 348.376 437.838 348.376 440.834C348.376 443.858 347.592 445.16 346.43 445.16ZM351.536 446H357.164V444.936H355.106V435.724H354.126C353.566 436.06 352.908 436.298 351.998 436.466V437.278H353.818V444.936H351.536V446ZM360.841 446H362.171C362.325 441.982 362.773 439.588 365.181 436.508V435.724H358.755V436.83H363.725C361.723 439.63 361.009 442.108 360.841 446ZM375.761 443.788H376.923V434.492H375.761V436.116H372.219V437.04H375.761V438.524H372.219V439.434H375.761V443.788ZM373.689 440.512C371.813 440.848 370.175 440.946 368.453 440.96V435.388H367.305V441.926H368.257C370.105 441.926 371.799 441.828 373.815 441.464L373.689 440.512ZM370.021 445.818V442.99H368.873V446.756H377.245V445.818H370.021Z" fill="#383E41"/>
<path d="M434.246 446H440.7V444.894H437.858C437.34 444.894 436.71 444.95 436.178 444.992C438.586 442.71 440.196 440.624 440.196 438.58C440.196 436.746 439.048 435.542 437.214 435.542C435.912 435.542 435.03 436.144 434.19 437.054L434.932 437.782C435.492 437.11 436.22 436.592 437.06 436.592C438.334 436.592 438.95 437.446 438.95 438.622C438.95 440.386 437.466 442.43 434.246 445.244V446ZM445.288 446.182C447.234 446.182 448.48 444.404 448.48 440.834C448.48 437.278 447.234 435.542 445.288 435.542C443.328 435.542 442.082 437.264 442.082 440.834C442.082 444.404 443.328 446.182 445.288 446.182ZM445.288 445.16C444.112 445.16 443.328 443.858 443.328 440.834C443.328 437.838 444.112 436.564 445.288 436.564C446.45 436.564 447.234 437.838 447.234 440.834C447.234 443.858 446.45 445.16 445.288 445.16ZM450.393 446H456.021V444.936H453.963V435.724H452.983C452.423 436.06 451.765 436.298 450.855 436.466V437.278H452.675V444.936H450.393V446ZM460.833 446.182C462.765 446.182 464.053 445.02 464.053 443.522C464.053 442.122 463.213 441.352 462.317 440.834V440.764C462.933 440.288 463.689 439.364 463.689 438.286C463.689 436.704 462.625 435.584 460.875 435.584C459.279 435.584 458.061 436.62 458.061 438.188C458.061 439.266 458.691 440.036 459.447 440.554V440.624C458.509 441.128 457.557 442.08 457.557 443.452C457.557 445.034 458.943 446.182 460.833 446.182ZM461.533 440.428C460.329 439.952 459.223 439.42 459.223 438.188C459.223 437.194 459.909 436.522 460.861 436.522C461.967 436.522 462.597 437.348 462.597 438.356C462.597 439.112 462.233 439.812 461.533 440.428ZM460.861 445.23C459.629 445.23 458.719 444.432 458.719 443.34C458.719 442.36 459.293 441.548 460.119 441.016C461.575 441.604 462.835 442.122 462.835 443.494C462.835 444.516 462.037 445.23 460.861 445.23ZM474.618 443.788H475.78V434.492H474.618V436.116H471.076V437.04H474.618V438.524H471.076V439.434H474.618V443.788ZM472.546 440.512C470.67 440.848 469.032 440.946 467.31 440.96V435.388H466.162V441.926H467.114C468.962 441.926 470.656 441.828 472.672 441.464L472.546 440.512ZM468.878 445.818V442.99H467.73V446.756H476.102V445.818H468.878Z" fill="#383E41"/>
<path d="M533.103 446H539.557V444.894H536.715C536.197 444.894 535.567 444.95 535.035 444.992C537.443 442.71 539.053 440.624 539.053 438.58C539.053 436.746 537.905 435.542 536.071 435.542C534.769 435.542 533.887 436.144 533.047 437.054L533.789 437.782C534.349 437.11 535.077 436.592 535.917 436.592C537.191 436.592 537.807 437.446 537.807 438.622C537.807 440.386 536.323 442.43 533.103 445.244V446ZM544.145 446.182C546.091 446.182 547.337 444.404 547.337 440.834C547.337 437.278 546.091 435.542 544.145 435.542C542.185 435.542 540.939 437.264 540.939 440.834C540.939 444.404 542.185 446.182 544.145 446.182ZM544.145 445.16C542.969 445.16 542.185 443.858 542.185 440.834C542.185 437.838 542.969 436.564 544.145 436.564C545.307 436.564 546.091 437.838 546.091 440.834C546.091 443.858 545.307 445.16 544.145 445.16ZM549.251 446H554.879V444.936H552.821V435.724H551.841C551.281 436.06 550.623 436.298 549.713 436.466V437.278H551.533V444.936H549.251V446ZM557.604 438.874C557.604 437.474 558.36 436.55 559.34 436.55C560.656 436.55 561.44 437.67 561.58 439.784C560.922 440.75 560.138 441.156 559.438 441.156C558.22 441.156 557.604 440.26 557.604 438.874ZM559.06 446.182C560.992 446.182 562.784 444.586 562.784 440.428C562.784 437.166 561.314 435.542 559.34 435.542C557.744 435.542 556.4 436.886 556.4 438.874C556.4 441.002 557.52 442.108 559.228 442.108C560.082 442.108 560.964 441.618 561.594 440.848C561.496 444.026 560.348 445.118 559.018 445.118C558.36 445.118 557.73 444.824 557.31 444.334L556.596 445.132C557.17 445.734 557.954 446.182 559.06 446.182ZM573.476 443.788H574.638V434.492H573.476V436.116H569.934V437.04H573.476V438.524H569.934V439.434H573.476V443.788ZM571.404 440.512C569.528 440.848 567.89 440.946 566.168 440.96V435.388H565.02V441.926H565.972C567.82 441.926 569.514 441.828 571.53 441.464L571.404 440.512ZM567.736 445.818V442.99H566.588V446.756H574.96V445.818H567.736Z" fill="#383E41"/>
<path d="M631.961 446H638.415V444.894H635.573C635.055 444.894 634.425 444.95 633.893 444.992C636.301 442.71 637.911 440.624 637.911 438.58C637.911 436.746 636.763 435.542 634.929 435.542C633.627 435.542 632.745 436.144 631.905 437.054L632.647 437.782C633.207 437.11 633.935 436.592 634.775 436.592C636.049 436.592 636.665 437.446 636.665 438.622C636.665 440.386 635.181 442.43 631.961 445.244V446ZM643.002 446.182C644.948 446.182 646.194 444.404 646.194 440.834C646.194 437.278 644.948 435.542 643.002 435.542C641.042 435.542 639.796 437.264 639.796 440.834C639.796 444.404 641.042 446.182 643.002 446.182ZM643.002 445.16C641.826 445.16 641.042 443.858 641.042 440.834C641.042 437.838 641.826 436.564 643.002 436.564C644.164 436.564 644.948 437.838 644.948 440.834C644.948 443.858 644.164 445.16 643.002 445.16ZM647.492 446H653.946V444.894H651.104C650.586 444.894 649.956 444.95 649.424 444.992C651.832 442.71 653.442 440.624 653.442 438.58C653.442 436.746 652.294 435.542 650.46 435.542C649.158 435.542 648.276 436.144 647.436 437.054L648.178 437.782C648.738 437.11 649.466 436.592 650.306 436.592C651.58 436.592 652.196 437.446 652.196 438.622C652.196 440.386 650.712 442.43 647.492 445.244V446ZM658.534 446.182C660.48 446.182 661.726 444.404 661.726 440.834C661.726 437.278 660.48 435.542 658.534 435.542C656.574 435.542 655.328 437.264 655.328 440.834C655.328 444.404 656.574 446.182 658.534 446.182ZM658.534 445.16C657.358 445.16 656.574 443.858 656.574 440.834C656.574 437.838 657.358 436.564 658.534 436.564C659.696 436.564 660.48 437.838 660.48 440.834C660.48 443.858 659.696 445.16 658.534 445.16ZM672.333 443.788H673.495V434.492H672.333V436.116H668.791V437.04H672.333V438.524H668.791V439.434H672.333V443.788ZM670.261 440.512C668.385 440.848 666.747 440.946 665.025 440.96V435.388H663.877V441.926H664.829C666.677 441.926 668.371 441.828 670.387 441.464L670.261 440.512ZM666.593 445.818V442.99H665.445V446.756H673.817V445.818H666.593Z" fill="#383E41"/>
<path d="M730.817 446H737.271V444.894H734.429C733.911 444.894 733.281 444.95 732.749 444.992C735.157 442.71 736.767 440.624 736.767 438.58C736.767 436.746 735.619 435.542 733.785 435.542C732.483 435.542 731.601 436.144 730.761 437.054L731.503 437.782C732.063 437.11 732.791 436.592 733.631 436.592C734.905 436.592 735.521 437.446 735.521 438.622C735.521 440.386 734.037 442.43 730.817 445.244V446ZM741.859 446.182C743.805 446.182 745.051 444.404 745.051 440.834C745.051 437.278 743.805 435.542 741.859 435.542C739.899 435.542 738.653 437.264 738.653 440.834C738.653 444.404 739.899 446.182 741.859 446.182ZM741.859 445.16C740.683 445.16 739.899 443.858 739.899 440.834C739.899 437.838 740.683 436.564 741.859 436.564C743.021 436.564 743.805 437.838 743.805 440.834C743.805 443.858 743.021 445.16 741.859 445.16ZM746.348 446H752.802V444.894H749.96C749.442 444.894 748.812 444.95 748.28 444.992C750.688 442.71 752.298 440.624 752.298 438.58C752.298 436.746 751.15 435.542 749.316 435.542C748.014 435.542 747.132 436.144 746.292 437.054L747.034 437.782C747.594 437.11 748.322 436.592 749.162 436.592C750.436 436.592 751.052 437.446 751.052 438.622C751.052 440.386 749.568 442.43 746.348 445.244V446ZM754.73 446H760.358V444.936H758.3V435.724H757.32C756.76 436.06 756.102 436.298 755.192 436.466V437.278H757.012V444.936H754.73V446ZM771.19 443.788H772.352V434.492H771.19V436.116H767.648V437.04H771.19V438.524H767.648V439.434H771.19V443.788ZM769.118 440.512C767.242 440.848 765.604 440.946 763.882 440.96V435.388H762.734V441.926H763.686C765.534 441.926 767.228 441.828 769.244 441.464L769.118 440.512ZM765.45 445.818V442.99H764.302V446.756H772.674V445.818H765.45Z" fill="#383E41"/>
<path d="M829.675 446H836.115V444.908H833.273C832.755 444.908 832.139 444.95 831.593 445.006C834.015 442.724 835.625 440.638 835.625 438.58C835.625 436.746 834.477 435.556 832.643 435.556C831.341 435.556 830.445 436.158 829.605 437.068L830.347 437.782C830.921 437.11 831.649 436.592 832.489 436.592C833.763 436.592 834.365 437.46 834.365 438.636C834.365 440.386 832.895 442.444 829.675 445.258V446ZM840.716 446.196C842.648 446.196 843.894 444.418 843.894 440.834C843.894 437.278 842.648 435.556 840.716 435.556C838.756 435.556 837.51 437.278 837.51 440.834C837.51 444.418 838.756 446.196 840.716 446.196ZM840.716 445.16C839.54 445.16 838.742 443.858 838.742 440.834C838.742 437.852 839.54 436.578 840.716 436.578C841.878 436.578 842.662 437.852 842.662 440.834C842.662 443.858 841.878 445.16 840.716 445.16ZM845.206 446H851.646V444.908H848.804C848.286 444.908 847.67 444.95 847.124 445.006C849.546 442.724 851.156 440.638 851.156 438.58C851.156 436.746 850.008 435.556 848.174 435.556C846.872 435.556 845.976 436.158 845.136 437.068L845.878 437.782C846.452 437.11 847.18 436.592 848.02 436.592C849.294 436.592 849.896 437.46 849.896 438.636C849.896 440.386 848.426 442.444 845.206 445.258V446ZM852.971 446H859.411V444.908H856.569C856.051 444.908 855.435 444.95 854.889 445.006C857.311 442.724 858.921 440.638 858.921 438.58C858.921 436.746 857.773 435.556 855.939 435.556C854.637 435.556 853.741 436.158 852.901 437.068L853.643 437.782C854.217 437.11 854.945 436.592 855.785 436.592C857.059 436.592 857.661 437.46 857.661 438.636C857.661 440.386 856.191 442.444 852.971 445.258V446ZM870.061 434.436V443.816H871.223V434.436H870.061ZM866.491 436.088V437.026H870.495V436.088H866.491ZM863.131 445.86V446.812H871.559V445.86H863.131ZM863.131 443.004V446.294H864.293V443.004H863.131ZM861.549 435.36V441.324H862.711V435.36H861.549ZM861.549 440.96V441.926H862.501C864.363 441.926 866.057 441.842 868.087 441.478L867.975 440.512C866.001 440.862 864.307 440.96 862.501 440.96H861.549ZM866.491 438.496V439.448H870.495V438.496H866.491Z" fill="#383E41"/>
<path d="M631.367 222H638.487V220.096H636.263V210.144H634.519C633.767 210.624 632.951 210.928 631.767 211.152V212.608H633.911V220.096H631.367V222ZM640.821 225.408C642.757 224.768 643.845 223.344 643.845 221.472C643.845 220.016 643.237 219.152 642.149 219.152C641.317 219.152 640.629 219.696 640.629 220.544C640.629 221.44 641.333 221.936 642.101 221.936C642.149 221.936 642.197 221.936 642.245 221.936C642.261 222.832 641.573 223.664 640.325 224.128L640.821 225.408ZM645.992 222H653.112V220.096H650.888V210.144H649.144C648.392 210.624 647.576 210.928 646.392 211.152V212.608H648.536V220.096H645.992V222ZM656.902 213.888C656.902 212.432 657.622 211.712 658.502 211.712C659.51 211.712 660.326 212.512 660.534 214.656C659.99 215.568 659.238 215.936 658.582 215.936C657.558 215.936 656.902 215.28 656.902 213.888ZM658.182 222.224C660.534 222.224 662.726 220.288 662.726 215.808C662.726 211.696 660.71 209.936 658.47 209.936C656.438 209.936 654.742 211.456 654.742 213.888C654.742 216.4 656.166 217.616 658.134 217.616C658.934 217.616 659.942 217.136 660.566 216.336C660.454 219.296 659.366 220.304 658.038 220.304C657.334 220.304 656.614 219.936 656.182 219.456L654.934 220.88C655.638 221.6 656.71 222.224 658.182 222.224ZM668.451 216.208C669.475 216.208 670.147 216.864 670.147 218.256C670.147 219.712 669.411 220.448 668.531 220.448C667.539 220.448 666.739 219.616 666.515 217.456C667.059 216.56 667.811 216.208 668.451 216.208ZM668.579 222.224C670.595 222.224 672.291 220.688 672.291 218.256C672.291 215.728 670.883 214.544 668.899 214.544C668.131 214.544 667.107 215.024 666.467 215.824C666.563 212.848 667.683 211.824 669.043 211.824C669.731 211.824 670.451 212.208 670.867 212.688L672.115 211.28C671.395 210.544 670.355 209.936 668.899 209.936C666.515 209.936 664.323 211.824 664.323 216.24C664.323 220.416 666.323 222.224 668.579 222.224Z" fill="#217FEF"/>
<path d="M532.367 232H539.487V230.096H537.263V220.144H535.519C534.767 220.624 533.951 220.928 532.767 221.152V222.608H534.911V230.096H532.367V232ZM541.821 235.408C543.757 234.768 544.845 233.344 544.845 231.472C544.845 230.016 544.237 229.152 543.149 229.152C542.317 229.152 541.629 229.696 541.629 230.544C541.629 231.44 542.333 231.936 543.101 231.936C543.149 231.936 543.197 231.936 543.245 231.936C543.261 232.832 542.573 233.664 541.325 234.128L541.821 235.408ZM546.992 232H554.112V230.096H551.888V220.144H550.144C549.392 220.624 548.576 220.928 547.392 221.152V222.608H549.536V230.096H546.992V232ZM559.486 232.224C561.742 232.224 563.646 230.96 563.646 228.784C563.646 227.232 562.622 226.24 561.294 225.872V225.792C562.542 225.296 563.262 224.368 563.262 223.088C563.262 221.072 561.71 219.936 559.422 219.936C558.03 219.936 556.894 220.496 555.87 221.392L557.07 222.832C557.774 222.176 558.462 221.792 559.31 221.792C560.318 221.792 560.894 222.336 560.894 223.264C560.894 224.32 560.19 225.072 558.014 225.072V226.752C560.59 226.752 561.278 227.488 561.278 228.64C561.278 229.712 560.462 230.304 559.262 230.304C558.19 230.304 557.326 229.776 556.622 229.088L555.518 230.576C556.35 231.52 557.614 232.224 559.486 232.224ZM565.211 232H573.147V230.016H570.587C570.027 230.016 569.243 230.08 568.651 230.144C570.811 228.032 572.587 225.728 572.587 223.584C572.587 221.376 571.099 219.936 568.859 219.936C567.243 219.936 566.187 220.56 565.099 221.728L566.379 223.008C566.987 222.352 567.691 221.792 568.555 221.792C569.691 221.792 570.331 222.512 570.331 223.712C570.331 225.536 568.427 227.76 565.211 230.64V232Z" fill="#217FEF"/>
<path d="M731.367 205H738.487V203.096H736.263V193.144H734.519C733.767 193.624 732.951 193.928 731.767 194.152V195.608H733.911V203.096H731.367V205ZM740.821 208.408C742.757 207.768 743.845 206.344 743.845 204.472C743.845 203.016 743.237 202.152 742.149 202.152C741.317 202.152 740.629 202.696 740.629 203.544C740.629 204.44 741.333 204.936 742.101 204.936C742.149 204.936 742.197 204.936 742.245 204.936C742.261 205.832 741.573 206.664 740.325 207.128L740.821 208.408ZM749.064 205.224C751.32 205.224 753.224 203.96 753.224 201.784C753.224 200.232 752.2 199.24 750.872 198.872V198.792C752.12 198.296 752.84 197.368 752.84 196.088C752.84 194.072 751.288 192.936 749 192.936C747.608 192.936 746.472 193.496 745.448 194.392L746.648 195.832C747.352 195.176 748.04 194.792 748.888 194.792C749.896 194.792 750.472 195.336 750.472 196.264C750.472 197.32 749.768 198.072 747.592 198.072V199.752C750.168 199.752 750.856 200.488 750.856 201.64C750.856 202.712 750.04 203.304 748.84 203.304C747.768 203.304 746.904 202.776 746.2 202.088L745.096 203.576C745.928 204.52 747.192 205.224 749.064 205.224ZM756.726 200.136L758.566 197.192C758.902 196.552 759.222 195.896 759.51 195.256H759.574C759.542 195.96 759.494 197.032 759.494 197.72V200.136H756.726ZM759.494 205H761.686V201.928H763.078V200.136H761.686V193.144H758.854L754.438 200.328V201.928H759.494V205ZM766.147 200.136L767.987 197.192C768.323 196.552 768.643 195.896 768.931 195.256H768.995C768.963 195.96 768.915 197.032 768.915 197.72V200.136H766.147ZM768.915 205H771.107V201.928H772.499V200.136H771.107V193.144H768.275L763.859 200.328V201.928H768.915V205Z" fill="#217FEF"/>
<path d="M830.319 242H837.455V240.096H835.231V230.16H833.487C832.719 230.624 831.919 230.928 830.719 231.152V232.608H832.879V240.096H830.319V242ZM839.789 245.424C841.741 244.784 842.813 243.36 842.813 241.472C842.813 240.032 842.205 239.168 841.133 239.168C840.285 239.168 839.597 239.712 839.597 240.56C839.597 241.44 840.301 241.952 841.069 241.952C841.421 241.952 841.741 241.84 841.981 241.6L841.149 240.224L841.229 241.888C841.245 242.832 840.557 243.68 839.309 244.144L839.789 245.424ZM848.384 242.224C850.784 242.224 852.384 240.128 852.384 236.032C852.384 231.952 850.784 229.952 848.384 229.952C845.968 229.952 844.368 231.952 844.368 236.032C844.368 240.128 845.968 242.224 848.384 242.224ZM848.384 240.384C847.36 240.384 846.592 239.36 846.592 236.032C846.592 232.72 847.36 231.76 848.384 231.76C849.408 231.76 850.16 232.72 850.16 236.032C850.16 239.36 849.408 240.384 848.384 240.384ZM853.774 242H861.71V240.016H859.15C858.59 240.016 857.806 240.096 857.214 240.16C859.374 238.048 861.166 235.744 861.166 233.584C861.166 231.376 859.662 229.952 857.438 229.952C855.822 229.952 854.75 230.576 853.662 231.744L854.958 233.024C855.566 232.352 856.254 231.792 857.134 231.792C858.27 231.792 858.894 232.528 858.894 233.712C858.894 235.536 857.006 237.76 853.774 240.656V242ZM867.579 242.224C869.595 242.224 871.307 240.704 871.307 238.272C871.307 235.728 869.883 234.56 867.899 234.56C867.099 234.56 865.995 235.072 865.371 235.952L865.467 237.552C866.059 236.576 866.811 236.224 867.467 236.224C868.475 236.224 869.147 236.864 869.147 238.272C869.147 239.712 868.427 240.448 867.547 240.448C866.379 240.448 865.483 239.312 865.483 236.24C865.483 232.944 866.619 231.84 868.059 231.84C868.731 231.84 869.467 232.224 869.867 232.688L871.131 231.296C870.411 230.544 869.355 229.952 867.915 229.952C865.515 229.952 863.323 231.84 863.323 236.24C863.323 240.416 865.339 242.224 867.579 242.224Z" fill="#217FEF"/>
<path d="M243.295 293.208C244.319 293.208 244.991 293.864 244.991 295.256C244.991 296.712 244.255 297.448 243.375 297.448C242.383 297.448 241.583 296.616 241.359 294.456C241.903 293.56 242.655 293.208 243.295 293.208ZM243.423 299.224C245.439 299.224 247.135 297.688 247.135 295.256C247.135 292.728 245.727 291.544 243.743 291.544C242.975 291.544 241.951 292.024 241.311 292.824C241.407 289.848 242.527 288.824 243.887 288.824C244.575 288.824 245.295 289.208 245.711 289.688L246.959 288.28C246.239 287.544 245.199 286.936 243.743 286.936C241.359 286.936 239.167 288.824 239.167 293.24C239.167 297.416 241.167 299.224 243.423 299.224ZM250.589 290.888C250.589 289.432 251.309 288.712 252.189 288.712C253.197 288.712 254.013 289.512 254.221 291.656C253.677 292.568 252.925 292.936 252.269 292.936C251.245 292.936 250.589 292.28 250.589 290.888ZM251.869 299.224C254.221 299.224 256.413 297.288 256.413 292.808C256.413 288.696 254.397 286.936 252.157 286.936C250.125 286.936 248.429 288.456 248.429 290.888C248.429 293.4 249.853 294.616 251.821 294.616C252.621 294.616 253.629 294.136 254.253 293.336C254.141 296.296 253.053 297.304 251.725 297.304C251.021 297.304 250.301 296.936 249.869 296.456L248.621 297.88C249.325 298.6 250.397 299.224 251.869 299.224ZM262.139 293.208C263.163 293.208 263.835 293.864 263.835 295.256C263.835 296.712 263.099 297.448 262.219 297.448C261.227 297.448 260.427 296.616 260.203 294.456C260.747 293.56 261.499 293.208 262.139 293.208ZM262.267 299.224C264.283 299.224 265.979 297.688 265.979 295.256C265.979 292.728 264.571 291.544 262.587 291.544C261.819 291.544 260.795 292.024 260.155 292.824C260.251 289.848 261.371 288.824 262.731 288.824C263.419 288.824 264.139 289.208 264.555 289.688L265.803 288.28C265.083 287.544 264.043 286.936 262.587 286.936C260.203 286.936 258.011 288.824 258.011 293.24C258.011 297.416 260.011 299.224 262.267 299.224Z" fill="#217FEF"/>
<path d="M342.071 264.224C344.471 264.224 346.055 262.848 346.055 261.056C346.055 259.44 345.159 258.48 344.071 257.888V257.808C344.855 257.248 345.591 256.272 345.591 255.104C345.591 253.216 344.247 251.952 342.151 251.952C340.103 251.952 338.583 253.168 338.583 255.072C338.583 256.336 339.239 257.232 340.151 257.888V257.968C339.047 258.544 338.119 259.536 338.119 261.056C338.119 262.912 339.815 264.224 342.071 264.224ZM342.823 257.232C341.575 256.736 340.663 256.192 340.663 255.072C340.663 254.128 341.303 253.6 342.103 253.6C343.095 253.6 343.671 254.288 343.671 255.248C343.671 255.952 343.399 256.624 342.823 257.232ZM342.135 262.56C341.031 262.56 340.151 261.872 340.151 260.8C340.151 259.92 340.599 259.12 341.239 258.608C342.775 259.232 343.863 259.744 343.863 260.976C343.863 262 343.143 262.56 342.135 262.56ZM349.765 264H352.149C352.341 259.36 352.709 256.944 355.461 253.584V252.144H347.589V254.128H352.917C350.661 257.264 349.973 259.888 349.765 264ZM358.835 259.136L360.675 256.192C361.011 255.552 361.331 254.896 361.619 254.256H361.683C361.651 254.96 361.603 256.032 361.603 256.72V259.136H358.835ZM361.603 264H363.795V260.928H365.187V259.136H363.795V252.144H360.963L356.547 259.328V260.928H361.603V264Z" fill="#217FEF"/>
<path d="M443.167 247.888C443.167 246.432 443.887 245.712 444.767 245.712C445.775 245.712 446.591 246.512 446.799 248.656C446.255 249.568 445.503 249.936 444.847 249.936C443.823 249.936 443.167 249.28 443.167 247.888ZM444.447 256.224C446.799 256.224 448.991 254.288 448.991 249.808C448.991 245.696 446.975 243.936 444.735 243.936C442.703 243.936 441.007 245.456 441.007 247.888C441.007 250.4 442.431 251.616 444.399 251.616C445.199 251.616 446.207 251.136 446.831 250.336C446.719 253.296 445.631 254.304 444.303 254.304C443.599 254.304 442.879 253.936 442.447 253.456L441.199 254.88C441.903 255.6 442.975 256.224 444.447 256.224ZM454.717 250.208C455.741 250.208 456.413 250.864 456.413 252.256C456.413 253.712 455.677 254.448 454.797 254.448C453.805 254.448 453.005 253.616 452.781 251.456C453.325 250.56 454.077 250.208 454.717 250.208ZM454.845 256.224C456.861 256.224 458.557 254.688 458.557 252.256C458.557 249.728 457.149 248.544 455.165 248.544C454.397 248.544 453.373 249.024 452.733 249.824C452.829 246.848 453.949 245.824 455.309 245.824C455.997 245.824 456.717 246.208 457.133 246.688L458.381 245.28C457.661 244.544 456.621 243.936 455.165 243.936C452.781 243.936 450.589 245.824 450.589 250.24C450.589 254.416 452.589 256.224 454.845 256.224ZM461.835 251.136L463.675 248.192C464.011 247.552 464.331 246.896 464.619 246.256H464.683C464.651 246.96 464.603 248.032 464.603 248.72V251.136H461.835ZM464.603 256H466.795V252.928H468.187V251.136H466.795V244.144H463.963L459.547 251.328V252.928H464.603V256Z" fill="#217FEF"/>
<path d="M131.695 15H139.631V13.016H137.071C136.511 13.016 135.727 13.096 135.135 13.16C137.295 11.048 139.087 8.744 139.087 6.584C139.087 4.376 137.583 2.952 135.359 2.952C133.743 2.952 132.671 3.576 131.583 4.744L132.879 6.024C133.487 5.352 134.175 4.792 135.055 4.792C136.191 4.792 136.815 5.528 136.815 6.712C136.815 8.536 134.927 10.76 131.695 13.656V15ZM141.789 18.424C143.741 17.784 144.813 16.36 144.813 14.472C144.813 13.032 144.205 12.168 143.133 12.168C142.285 12.168 141.597 12.712 141.597 13.56C141.597 14.44 142.301 14.952 143.069 14.952C143.421 14.952 143.741 14.84 143.981 14.6L143.149 13.224L143.229 14.888C143.245 15.832 142.557 16.68 141.309 17.144L141.789 18.424ZM149.744 15.224C152.096 15.224 154.288 13.288 154.288 8.808C154.288 4.712 152.272 2.952 150.016 2.952C148 2.952 146.304 4.456 146.304 6.904C146.304 9.416 147.712 10.616 149.696 10.616C150.528 10.616 151.6 10.088 152.24 9.208L152.112 7.608C151.536 8.584 150.8 8.952 150.128 8.952C149.12 8.952 148.448 8.28 148.448 6.904C148.448 5.432 149.168 4.712 150.064 4.712C151.216 4.712 152.128 5.784 152.128 8.808C152.128 12.2 150.992 13.32 149.6 13.32C148.896 13.32 148.176 12.952 147.728 12.456L146.48 13.88C147.2 14.616 148.256 15.224 149.744 15.224ZM158.062 15H160.446C160.654 10.376 161.006 7.944 163.758 4.584V3.16H155.902V5.128H161.23C158.958 8.264 158.286 10.904 158.062 15ZM169.259 15.224C171.659 15.224 173.259 13.128 173.259 9.032C173.259 4.952 171.659 2.952 169.259 2.952C166.843 2.952 165.243 4.952 165.243 9.032C165.243 13.128 166.843 15.224 169.259 15.224ZM169.259 13.384C168.235 13.384 167.467 12.36 167.467 9.032C167.467 5.72 168.235 4.76 169.259 4.76C170.283 4.76 171.035 5.72 171.035 9.032C171.035 12.36 170.283 13.384 169.259 13.384Z" fill="#217FEF"/>
</svg>
