<svg width="86" height="24" viewBox="0 0 86 24" fill="none" xmlns="http://www.w3.org/2000/svg">
<path d="M50.4659 10.4952V7.86486C50.4659 7.57552 50.2293 7.33879 49.9402 7.33879H38.3751C38.086 7.33879 37.8494 7.57552 37.8494 7.86486V11.2844C37.8494 11.5737 38.086 11.8104 38.3751 11.8104H50.203C50.7024 11.8104 51.1756 11.8893 51.6224 12.0735C52.9366 12.5732 53.9091 13.7832 54.1194 15.2299C54.1194 15.3088 54.1457 15.4141 54.1457 15.493C54.1457 15.5719 54.1457 15.6771 54.1457 15.756V19.7016C54.1457 21.0957 53.4097 22.332 52.3058 23.0422C51.7801 23.3841 51.1493 23.5945 50.4659 23.6472C50.387 23.6472 50.2819 23.6472 50.203 23.6472H38.1122C38.0334 23.6472 37.9282 23.6472 37.8494 23.6472C35.7992 23.5156 34.1696 21.8059 34.1696 19.7016V18.3338L37.8494 16.8082V19.4385C37.8494 19.7279 38.086 19.9646 38.3751 19.9646H49.9402C50.2293 19.9646 50.4659 19.7279 50.4659 19.4385V16.019C50.4659 15.7297 50.2293 15.493 49.9402 15.493H38.1122C37.6128 15.493 37.1397 15.3878 36.6929 15.2299C35.4575 14.7565 34.5113 13.6517 34.2484 12.3365C34.2222 12.1524 34.1959 11.9946 34.1959 11.8104C34.1959 11.7315 34.1959 11.6263 34.1959 11.5474V7.60182C34.1959 7.52291 34.1959 7.4177 34.1959 7.33879C34.1959 7.31248 34.1959 7.28618 34.1959 7.25987C34.2222 6.91792 34.301 6.60228 34.4061 6.28663C34.9318 4.76101 36.4038 3.65625 38.1122 3.65625H50.203C50.2819 3.65625 50.387 3.65625 50.4659 3.65625C51.3858 3.70886 52.2006 4.07711 52.8315 4.6558C53.6463 5.3923 54.1457 6.41815 54.1457 7.60182V8.96962L50.4659 10.4952ZM81.4814 3.65625V18.0707L69.3906 3.65625H65.1851V23.6472H68.8649V9.28527L80.9032 23.6472H85.1612V3.65625H81.4814ZM61.5053 3.65625H57.8255V23.6472H61.5053V3.65625ZM13.9569 17.3342C13.5101 17.5184 13.0107 17.5973 12.485 17.5973C12.0382 17.5973 11.6176 17.5184 11.1971 17.4131C10.8554 17.3079 10.5137 17.5447 10.5137 17.9129V23.6735H14.1935V17.5447C14.1935 17.3868 14.0621 17.2816 13.9569 17.3342ZM26.81 3.65625V11.8104H18.2676C17.4002 11.8104 16.6905 12.5206 16.6905 13.3887C16.6905 14.0463 16.5328 14.6776 16.2699 15.2299C16.2174 15.3615 16.2962 15.493 16.4277 15.493H26.81V23.6472H30.4898V3.65625H26.81Z" fill="white"/>
<path d="M15.7706 4.70838C14.6141 4.70838 13.6679 5.65532 13.6679 6.81269C13.6679 7.52289 14.0096 8.15418 14.5615 8.52244C14.6404 8.54874 14.693 8.60135 14.7718 8.65395C15.0609 8.81178 15.4026 8.91699 15.7706 8.91699C16.9271 8.91699 17.8734 7.97006 17.8734 6.81269C17.8734 5.65532 16.9271 4.70838 15.7706 4.70838ZM2.10275 2.60408C0.946237 2.60408 0 3.55101 0 4.70838C0 5.86575 0.946237 6.81269 2.10275 6.81269C3.25926 6.81269 4.2055 5.86575 4.2055 4.70838C4.2055 3.55101 3.25926 2.60408 2.10275 2.60408ZM5.28315 7.86484C4.7049 7.86484 4.23178 8.33831 4.23178 8.91699C4.23178 9.49568 4.7049 9.96915 5.28315 9.96915C5.86141 9.96915 6.33453 9.49568 6.33453 8.91699C6.33453 8.33831 5.86141 7.86484 5.28315 7.86484ZM15.8757 13.3623C15.8757 15.2562 14.3513 16.8081 12.4325 16.8081C10.54 16.8081 8.98925 15.2562 8.98925 13.3623C8.98925 12.8363 9.12067 12.3365 9.33094 11.863C9.35723 11.8367 9.35723 11.8104 9.38351 11.7841C9.67264 11.258 9.83035 10.653 9.83035 9.99545C9.83035 8.39092 8.85783 7.02312 7.43847 6.44444H7.41219C7.3859 6.44444 7.3859 6.44443 7.35962 6.41813C7.33333 6.41813 7.30705 6.39183 7.28076 6.39183C7.28076 6.39183 7.25448 6.39183 7.25448 6.36552H7.2282C6.0454 5.86575 5.23059 4.68208 5.23059 3.31428C5.23059 1.92018 6.09797 0.736507 7.30705 0.236734C7.70131 0.0789113 8.12186 0 8.5687 0C9.01553 0 9.43608 0.0789113 9.83035 0.236734C11.0394 0.736507 11.9068 1.92018 11.9068 3.31428C11.9068 3.78775 11.8017 4.23491 11.6177 4.65578V4.68208C11.6177 4.68208 11.6177 4.70838 11.5914 4.70838C11.5651 4.76099 11.5388 4.8399 11.4863 4.89251C11.2497 5.39228 11.1446 5.91836 11.1446 6.49704C11.1446 8.15418 12.1959 9.57459 13.6679 10.127C13.6941 10.127 13.6941 10.127 13.7204 10.1533C14.9821 10.653 15.8757 11.9156 15.8757 13.3623Z" fill="url(#paint0_linear_2_429)"/>
<defs>
<linearGradient id="paint0_linear_2_429" x1="1.26254" y1="-0.293998" x2="21.5151" y2="17.4425" gradientUnits="userSpaceOnUse">
<stop offset="0.2191" stop-color="#D5FF92"/>
<stop offset="0.6543" stop-color="#35D6C6"/>
</linearGradient>
</defs>
</svg>
