<svg width="87" height="24" viewBox="0 0 87 24" fill="none" xmlns="http://www.w3.org/2000/svg">
<path d="M51.3702 10.4952V7.86486C51.3702 7.57552 51.1336 7.33879 50.8445 7.33879H39.2794C38.9903 7.33879 38.7537 7.57552 38.7537 7.86486V11.2844C38.7537 11.5737 38.9903 11.8104 39.2794 11.8104H51.1073C51.6067 11.8104 52.0799 11.8893 52.5267 12.0735C53.8409 12.5732 54.8134 13.7832 55.0237 15.2299C55.0237 15.3088 55.05 15.4141 55.05 15.493C55.05 15.5719 55.05 15.6771 55.05 15.756V19.7016C55.05 21.0957 54.314 22.332 53.2101 23.0422C52.6844 23.3841 52.0536 23.5945 51.3702 23.6472C51.2913 23.6472 51.1862 23.6472 51.1073 23.6472H39.0165C38.9377 23.6472 38.8325 23.6472 38.7537 23.6472C36.7035 23.5156 35.0739 21.8059 35.0739 19.7016V18.3338L38.7537 16.8082V19.4385C38.7537 19.7279 38.9903 19.9646 39.2794 19.9646H50.8445C51.1336 19.9646 51.3702 19.7279 51.3702 19.4385V16.019C51.3702 15.7297 51.1336 15.493 50.8445 15.493H39.0165C38.5171 15.493 38.044 15.3878 37.5972 15.2299C36.3618 14.7565 35.4156 13.6517 35.1527 12.3365C35.1264 12.1524 35.1002 11.9946 35.1002 11.8104C35.1002 11.7315 35.1002 11.6263 35.1002 11.5474V7.60182C35.1002 7.52291 35.1002 7.4177 35.1002 7.33879C35.1002 7.31248 35.1002 7.28618 35.1002 7.25987C35.1265 6.91792 35.2053 6.60228 35.3104 6.28663C35.8361 4.76101 37.3081 3.65625 39.0165 3.65625H51.1073C51.1862 3.65625 51.2913 3.65625 51.3702 3.65625C52.2901 3.70886 53.1049 4.07711 53.7358 4.6558C54.5506 5.3923 55.05 6.41815 55.05 7.60182V8.96962L51.3702 10.4952ZM82.3857 3.65625V18.0707L70.2949 3.65625H66.0894V23.6472H69.7692V9.28527L81.8074 23.6472H86.0655V3.65625H82.3857ZM62.4096 3.65625H58.7298V23.6472H62.4096V3.65625ZM14.8612 17.3342C14.4144 17.5184 13.915 17.5973 13.3893 17.5973C12.9425 17.5973 12.5219 17.5184 12.1014 17.4131C11.7597 17.3079 11.418 17.5447 11.418 17.9129V23.6735H15.0978V17.5447C15.0978 17.3868 14.9664 17.2816 14.8612 17.3342ZM27.7143 3.65625V11.8104H19.1719C18.3045 11.8104 17.5948 12.5206 17.5948 13.3887C17.5948 14.0463 17.4371 14.6776 17.1742 15.2299C17.1217 15.3615 17.2005 15.493 17.3319 15.493H27.7143V23.6472H31.3941V3.65625H27.7143Z" fill="url(#paint0_linear_2_300)"/>
<path d="M16.6747 4.70838C15.5182 4.70838 14.5719 5.65532 14.5719 6.81269C14.5719 7.52289 14.9136 8.15418 15.4656 8.52244C15.5444 8.54874 15.597 8.60135 15.6759 8.65395C15.965 8.81178 16.3067 8.91699 16.6747 8.91699C17.8312 8.91699 18.7774 7.97006 18.7774 6.81269C18.7774 5.65532 17.8312 4.70838 16.6747 4.70838ZM3.0068 2.60408C1.85029 2.60408 0.904053 3.55101 0.904053 4.70838C0.904053 5.86575 1.85029 6.81269 3.0068 6.81269C4.16331 6.81269 5.10955 5.86575 5.10955 4.70838C5.10955 3.55101 4.16331 2.60408 3.0068 2.60408ZM6.18721 7.86484C5.60895 7.86484 5.13583 8.33831 5.13583 8.91699C5.13583 9.49568 5.60895 9.96915 6.18721 9.96915C6.76546 9.96915 7.23858 9.49568 7.23858 8.91699C7.23858 8.33831 6.76546 7.86484 6.18721 7.86484ZM16.7798 13.3623C16.7798 15.2562 15.2553 16.8081 13.3366 16.8081C11.4441 16.8081 9.8933 15.2562 9.8933 13.3623C9.8933 12.8363 10.0247 12.3365 10.235 11.863C10.2613 11.8367 10.2613 11.8104 10.2876 11.7841C10.5767 11.258 10.7344 10.653 10.7344 9.99545C10.7344 8.39092 9.76188 7.02312 8.34252 6.44444H8.31624C8.28995 6.44444 8.28995 6.44443 8.26367 6.41813C8.23739 6.41813 8.2111 6.39183 8.18482 6.39183C8.18482 6.39183 8.15853 6.39183 8.15853 6.36552H8.13225C6.94945 5.86575 6.13464 4.68208 6.13464 3.31428C6.13464 1.92018 7.00202 0.736507 8.2111 0.236734C8.60537 0.0789113 9.02592 0 9.47275 0C9.91958 0 10.3401 0.0789113 10.7344 0.236734C11.9435 0.736507 12.8109 1.92018 12.8109 3.31428C12.8109 3.78775 12.7057 4.23491 12.5217 4.65578V4.68208C12.5217 4.68208 12.5217 4.70838 12.4955 4.70838C12.4692 4.76099 12.4429 4.8399 12.3903 4.89251C12.1538 5.39228 12.0486 5.91836 12.0486 6.49704C12.0486 8.15418 13.1 9.57459 14.5719 10.127C14.5982 10.127 14.5982 10.127 14.6245 10.1533C15.8861 10.653 16.7798 11.9156 16.7798 13.3623Z" fill="url(#paint1_linear_2_300)"/>
<defs>
<linearGradient id="paint0_linear_2_300" x1="-0.328849" y1="-2.09971" x2="109.76" y2="33.1859" gradientUnits="userSpaceOnUse">
<stop stop-color="#072A83"/>
<stop offset="0.858" stop-color="#0349C3"/>
</linearGradient>
<linearGradient id="paint1_linear_2_300" x1="2.1666" y1="-0.293998" x2="22.4192" y2="17.4425" gradientUnits="userSpaceOnUse">
<stop offset="0.2191" stop-color="#D5FF92"/>
<stop offset="0.6543" stop-color="#35D6C6"/>
</linearGradient>
</defs>
</svg>
