<svg width="86" height="24" viewBox="0 0 86 24" fill="none" xmlns="http://www.w3.org/2000/svg">
<path d="M51.168 10.6486V8.01818C51.168 7.72884 50.9315 7.49211 50.6423 7.49211H39.0772C38.7881 7.49211 38.5515 7.72884 38.5515 8.01818V11.4377C38.5515 11.727 38.7881 11.9638 39.0772 11.9638H50.9052C51.4046 11.9638 51.8777 12.0427 52.3245 12.2268C53.6388 12.7266 54.6113 13.9365 54.8216 15.3833C54.8216 15.4622 54.8478 15.5674 54.8478 15.6463C54.8478 15.7252 54.8478 15.8304 54.8478 15.9093V19.8549C54.8478 21.249 54.1119 22.4853 53.0079 23.1955C52.4822 23.5374 51.8514 23.7479 51.168 23.8005C51.0892 23.8005 50.984 23.8005 50.9052 23.8005H38.8144C38.7355 23.8005 38.6304 23.8005 38.5515 23.8005C36.5014 23.669 34.8717 21.9592 34.8717 19.8549V18.4871L38.5515 16.9615V19.5919C38.5515 19.8812 38.7881 20.1179 39.0772 20.1179H50.6423C50.9315 20.1179 51.168 19.8812 51.168 19.5919V16.1724C51.168 15.883 50.9315 15.6463 50.6423 15.6463H38.8144C38.315 15.6463 37.8419 15.5411 37.395 15.3833C36.1597 14.9098 35.2134 13.805 34.9506 12.4898C34.9243 12.3057 34.898 12.1479 34.898 11.9638C34.898 11.8848 34.898 11.7796 34.898 11.7007V7.75514C34.898 7.67623 34.898 7.57102 34.898 7.49211C34.898 7.4658 34.898 7.4395 34.898 7.41319C34.9243 7.07124 35.0032 6.7556 35.1083 6.43995C35.634 4.91433 37.1059 3.80957 38.8144 3.80957H50.9052C50.984 3.80957 51.0892 3.80957 51.168 3.80957C52.088 3.86218 52.9028 4.23043 53.5336 4.80912C54.3484 5.54562 54.8478 6.57147 54.8478 7.75514V9.12294L51.168 10.6486ZM82.1836 3.80957V18.2241L70.0928 3.80957H65.8873V23.8005H69.5671V9.43859L81.6053 23.8005H85.8634V3.80957H82.1836V3.80957ZM62.2075 3.80957H58.5276V23.8005H62.2075V3.80957ZM14.6591 17.4876C14.2122 17.6717 13.7128 17.7506 13.1871 17.7506C12.7403 17.7506 12.3198 17.6717 11.8992 17.5665C11.5575 17.4613 11.2158 17.698 11.2158 18.0662V23.8268H14.8956V17.698C14.8956 17.5402 14.7642 17.435 14.6591 17.4876ZM27.5121 3.80957V11.9638H18.9697C18.1023 11.9638 17.3926 12.674 17.3926 13.542C17.3926 14.1996 17.2349 14.8309 16.9721 15.3833C16.9195 15.5148 16.9984 15.6463 17.1298 15.6463H27.5121V23.8005H31.1919V3.80957H27.5121V3.80957Z" fill="url(#paint0_linear_2_544)"/>
<path d="M16.4728 4.8617C15.3162 4.8617 14.37 5.80864 14.37 6.96601C14.37 7.67621 14.7117 8.3075 15.2637 8.67576C15.3425 8.70206 15.3951 8.75467 15.474 8.80727C15.7631 8.9651 16.1048 9.07031 16.4728 9.07031C17.6293 9.07031 18.5755 8.12338 18.5755 6.96601C18.5755 5.80864 17.6293 4.8617 16.4728 4.8617ZM2.8049 2.7574C1.64838 2.7574 0.702148 3.70433 0.702148 4.8617C0.702148 6.01907 1.64838 6.96601 2.8049 6.96601C3.96141 6.96601 4.90764 6.01907 4.90764 4.8617C4.90764 3.70433 3.96141 2.7574 2.8049 2.7574ZM5.9853 8.01816C5.40705 8.01816 4.93393 8.49163 4.93393 9.07031C4.93393 9.649 5.40705 10.1225 5.9853 10.1225C6.56356 10.1225 7.03668 9.649 7.03668 9.07031C7.03668 8.49163 6.56356 8.01816 5.9853 8.01816ZM16.5779 13.5157C16.5779 15.4095 15.0534 16.9615 13.1346 16.9615C11.2422 16.9615 9.69139 15.4095 9.69139 13.5157C9.69139 12.9896 9.82282 12.4898 10.0331 12.0163C10.0594 11.99 10.0594 11.9637 10.0857 11.9374C10.3748 11.4114 10.5325 10.8064 10.5325 10.1488C10.5325 8.54424 9.55997 7.17644 8.14062 6.59776H8.11433C8.08805 6.59776 8.08805 6.59775 8.06177 6.57145C8.03548 6.57145 8.0092 6.54515 7.98291 6.54515C7.98291 6.54515 7.95663 6.54515 7.95663 6.51884H7.93034C6.74755 6.01907 5.93273 4.8354 5.93273 3.4676C5.93273 2.0735 6.80012 0.889827 8.0092 0.390055C8.40346 0.232232 8.82401 0.15332 9.27085 0.15332C9.71768 0.15332 10.1382 0.232232 10.5325 0.390055C11.7416 0.889827 12.609 2.0735 12.609 3.4676C12.609 3.94107 12.5038 4.38824 12.3198 4.8091V4.8354C12.3198 4.8354 12.3198 4.8617 12.2935 4.8617C12.2673 4.91431 12.241 4.99322 12.1884 5.04583C11.9519 5.5456 11.8467 6.07168 11.8467 6.65036C11.8467 8.3075 12.8981 9.72791 14.37 10.2803C14.3963 10.2803 14.3963 10.2803 14.4226 10.3066C15.6842 10.8064 16.5779 12.0689 16.5779 13.5157Z" fill="url(#paint1_linear_2_544)"/>
<defs>
<linearGradient id="paint0_linear_2_544" x1="-0.530997" y1="-1.94639" x2="109.558" y2="33.3392" gradientUnits="userSpaceOnUse">
<stop stop-color="#072A83"/>
<stop offset="0.858" stop-color="#0349C3"/>
</linearGradient>
<linearGradient id="paint1_linear_2_544" x1="1.96469" y1="-0.140678" x2="22.2173" y2="17.5958" gradientUnits="userSpaceOnUse">
<stop offset="0.2191" stop-color="#D5FF92"/>
<stop offset="0.6543" stop-color="#35D6C6"/>
</linearGradient>
</defs>
</svg>
